<svg id="Icons-Provider" xmlns="http://www.w3.org/2000/svg" xmlns:xlink="http://www.w3.org/1999/xlink" width="70.191" height="80" viewBox="0 0 70.191 80">
  <defs>
    <clipPath id="clip-path">
      <path id="Mask" d="M70.191,80H0V62.074C0,51.627,3.032,45.59,20.265,39.535l1.194-.419L35.1,51.3,48.731,39.116l1.194.419C67.159,45.59,70.191,51.627,70.191,62.074V80ZM11.4,48.236a16.713,16.713,0,0,0-4.78,4.135c-2.149,2.9-2.324,6.112-2.324,9.7v13.6H65.888v-13.6c0-3.591-.175-6.8-2.324-9.7a16.069,16.069,0,0,0-4.285-3.822,21.985,21.985,0,0,1-1.126,3.843A9.369,9.369,0,0,1,61.1,55.957a9.474,9.474,0,0,1,.329,7.267l-3.218,8.942-6.147-2.234,1.461-4.067,2.1.763,1.755-4.877a5.188,5.188,0,0,0-3.1-6.636,5.082,5.082,0,0,0-1.751-.311,5.179,5.179,0,0,0-4.854,3.425L45.929,63.1l2.1.763-1.462,4.067L40.421,65.7l3.217-8.942a9.444,9.444,0,0,1,10.58-6.095,17.5,17.5,0,0,0,1.052-4.314c-1.617-.767-3.494-1.543-5.578-2.3L35.1,57.082,20.5,44.043c-1.754.641-3.365,1.294-4.788,1.939a24.794,24.794,0,0,0,1.275,9.287l.176-.024a4.877,4.877,0,0,1,.676-.062A6.905,6.905,0,1,1,13.09,57.12,27.694,27.694,0,0,1,11.4,48.236Zm6.433,11.271a2.568,2.568,0,1,0,2.556,2.567A2.563,2.563,0,0,0,17.838,59.507ZM35.1,41.081A16.557,16.557,0,0,1,18.6,24.5V16.58a16.5,16.5,0,1,1,33,0V24.5A16.557,16.557,0,0,1,35.1,41.081Zm0-36.757A12.239,12.239,0,0,0,22.9,16.58V24.5a12.2,12.2,0,1,0,24.39,0V16.58A12.239,12.239,0,0,0,35.1,4.324Z" transform="translate(0 0)" fill="#00739a"/>
    </clipPath>
  </defs>
  <g id="Colors_007298" data-name="Colors / 007298" transform="translate(0 0)">
    <path id="Mask-2" data-name="Mask" d="M70.191,80H0V62.074C0,51.627,3.032,45.59,20.265,39.535l1.194-.419L35.1,51.3,48.731,39.116l1.194.419C67.159,45.59,70.191,51.627,70.191,62.074V80ZM11.4,48.236a16.713,16.713,0,0,0-4.78,4.135c-2.149,2.9-2.324,6.112-2.324,9.7v13.6H65.888v-13.6c0-3.591-.175-6.8-2.324-9.7a16.069,16.069,0,0,0-4.285-3.822,21.985,21.985,0,0,1-1.126,3.843A9.369,9.369,0,0,1,61.1,55.957a9.474,9.474,0,0,1,.329,7.267l-3.218,8.942-6.147-2.234,1.461-4.067,2.1.763,1.755-4.877a5.188,5.188,0,0,0-3.1-6.636,5.082,5.082,0,0,0-1.751-.311,5.179,5.179,0,0,0-4.854,3.425L45.929,63.1l2.1.763-1.462,4.067L40.421,65.7l3.217-8.942a9.444,9.444,0,0,1,10.58-6.095,17.5,17.5,0,0,0,1.052-4.314c-1.617-.767-3.494-1.543-5.578-2.3L35.1,57.082,20.5,44.043c-1.754.641-3.365,1.294-4.788,1.939a24.794,24.794,0,0,0,1.275,9.287l.176-.024a4.877,4.877,0,0,1,.676-.062A6.905,6.905,0,1,1,13.09,57.12,27.694,27.694,0,0,1,11.4,48.236Zm6.433,11.271a2.568,2.568,0,1,0,2.556,2.567A2.563,2.563,0,0,0,17.838,59.507ZM35.1,41.081A16.557,16.557,0,0,1,18.6,24.5V16.58a16.5,16.5,0,1,1,33,0V24.5A16.557,16.557,0,0,1,35.1,41.081Zm0-36.757A12.239,12.239,0,0,0,22.9,16.58V24.5a12.2,12.2,0,1,0,24.39,0V16.58A12.239,12.239,0,0,0,35.1,4.324Z" transform="translate(0 0)" fill="#00739a"/>
    <g id="Colors_007298-2" data-name="Colors / 007298" clip-path="url(#clip-path)">
      <g id="Colors_007298-3" data-name="Colors / 007298" transform="translate(-5)">
        <rect id="Colors_007298-4" data-name="Colors / 007298" width="80" height="80" fill="#00739a"/>
      </g>
    </g>
  </g>
</svg>
