<svg id="Coherus_Logo_RGB_Rev_no_bkgrd_Copy_5" data-name="Coherus_Logo_RGB_Rev_no_bkgrd Copy 5" xmlns="http://www.w3.org/2000/svg" width="166" height="32" viewBox="0 0 166 32">
  <g id="Group">
    <path id="Path" d="M.124,7.021a9.57,9.57,0,0,0,7.824,7.874,9.223,9.223,0,0,0,6.976-1.668A16.132,16.132,0,0,0,10.453,4.5,16.226,16.226,0,0,0,1.781,0,9.414,9.414,0,0,0,.124,7.021Z" transform="translate(17.076)" fill="#fff"/>
    <path id="Path-2" data-name="Path" d="M7.948.124A9.57,9.57,0,0,0,.124,8a9.372,9.372,0,0,0,1.657,7.021,15.96,15.96,0,0,0,8.672-4.5,16.137,16.137,0,0,0,4.471-8.727A9.223,9.223,0,0,0,7.948.124Z" transform="translate(17.076 16.981)" fill="#fff"/>
    <path id="Path-3" data-name="Path" d="M15.157,26.492c0-5.857-4.394-8.456-7.747-9.619a.923.923,0,0,1,0-1.745c3.353-1.164,7.747-3.8,7.747-9.619A9.385,9.385,0,0,0,13.384,0,15.937,15.937,0,0,0,3.209,6.245a16.433,16.433,0,0,0,0,19.51A16.2,16.2,0,0,0,13.384,32,9.385,9.385,0,0,0,15.157,26.492Z" fill="#fff"/>
  </g>
  <g id="Group-2" data-name="Group" transform="translate(10 5)">
    <path id="Path-4" data-name="Path" d="M12.463,3.869A7.462,7.462,0,0,0,6.289,7.852,7.433,7.433,0,0,0,.039,4.02H0A7.616,7.616,0,0,0,6.212,0a7.507,7.507,0,0,0,6.251,3.869Z" transform="translate(0 7.739)" fill="#fff"/>
    <path id="Shape" d="M96.54,20.7a6.48,6.48,0,0,1-2.006-.939,4.587,4.587,0,0,1-1.467-1.8,6.9,6.9,0,0,1-.54-2.855V5.9h3.434v8.528a4.383,4.383,0,0,0,.463,2.179,2.548,2.548,0,0,0,1.312,1.127,5.464,5.464,0,0,0,2.006.338,4.855,4.855,0,0,0,2.74-.715,5.719,5.719,0,0,0,1.813-1.765,6.675,6.675,0,0,0,.695-1.391V5.9h3.434V20.587H104.99V15.665a.136.136,0,0,0-.039.113,15.829,15.829,0,0,1-.656,1.653,6.2,6.2,0,0,1-1.157,1.728,6.356,6.356,0,0,1-1.813,1.315A5.773,5.773,0,0,1,98.778,21,8.9,8.9,0,0,1,96.54,20.7Zm-31.023-.714a7.5,7.5,0,0,1-3.2-2.63,7.005,7.005,0,0,1-1.158-4.094,7.271,7.271,0,0,1,1.158-4.1A7.38,7.38,0,0,1,65.44,6.5,11.209,11.209,0,0,1,70.07,5.56a9.768,9.768,0,0,1,4.553.939,5.739,5.739,0,0,1,2.662,2.78,9.964,9.964,0,0,1,.733,4.658H64.591a4.9,4.9,0,0,0,.849,2.217,4.8,4.8,0,0,0,1.891,1.54,6.574,6.574,0,0,0,2.778.563,5.693,5.693,0,0,0,2.971-.714,3.429,3.429,0,0,0,1.582-1.8H77.98a5.334,5.334,0,0,1-1.235,2.667,6.693,6.693,0,0,1-2.624,1.841,10.255,10.255,0,0,1-3.935.677A10.713,10.713,0,0,1,65.517,19.985Zm1-10.744a4.445,4.445,0,0,0-1.737,2.517l9.8-.038A3.49,3.49,0,0,0,73.2,9.167a5.418,5.418,0,0,0-3.242-.9A5.761,5.761,0,0,0,66.521,9.241ZM27.472,20.023a7.311,7.311,0,0,1-3.163-2.592,7.235,7.235,0,0,1-1.158-4.17,7.167,7.167,0,0,1,1.158-4.133A7.4,7.4,0,0,1,27.472,6.5a10.856,10.856,0,0,1,4.553-.939,10.988,10.988,0,0,1,4.553.9A7.628,7.628,0,0,1,39.7,9.129a7.345,7.345,0,0,1,1.157,4.133,7.313,7.313,0,0,1-1.157,4.17,7.5,7.5,0,0,1-3.126,2.592,10.875,10.875,0,0,1-4.553.9A10.985,10.985,0,0,1,27.472,20.023Zm1.852-11.2a4.779,4.779,0,0,0-1.967,1.728,4.723,4.723,0,0,0-.733,2.705,4.593,4.593,0,0,0,2.7,4.395,6.756,6.756,0,0,0,5.4,0,4.379,4.379,0,0,0,1.93-1.69,4.562,4.562,0,0,0,.733-2.7,4.722,4.722,0,0,0-.733-2.705,4.944,4.944,0,0,0-1.93-1.728,6.3,6.3,0,0,0-2.7-.6A6.04,6.04,0,0,0,29.325,8.828ZM6.868,20.286A11.029,11.029,0,0,1,3.241,18.37,8.308,8.308,0,0,1,.849,15.29,9.965,9.965,0,0,1,0,11.045,10.022,10.022,0,0,1,.849,6.762,8.866,8.866,0,0,1,3.241,3.644,11.046,11.046,0,0,1,6.868,1.728,16.4,16.4,0,0,1,11.5,1.089a13.436,13.436,0,0,1,5.132.865,8.281,8.281,0,0,1,3.511,2.479A7.435,7.435,0,0,1,21.723,8.3H18.29a5.334,5.334,0,0,0-1.312-2.254,5.99,5.99,0,0,0-2.315-1.427A9.146,9.146,0,0,0,11.5,4.133a10.028,10.028,0,0,0-4.09.788A6.522,6.522,0,0,0,4.592,7.25a6.883,6.883,0,0,0-1,3.794,6.575,6.575,0,0,0,1,3.794,6.528,6.528,0,0,0,2.817,2.329,10.159,10.159,0,0,0,4.09.788,9.167,9.167,0,0,0,3.164-.488,6.3,6.3,0,0,0,2.276-1.428,5.775,5.775,0,0,0,1.351-2.216h3.434a7.882,7.882,0,0,1-1.62,3.831A8.147,8.147,0,0,1,16.592,20.1a14.869,14.869,0,0,1-5.093.826A16.2,16.2,0,0,1,6.868,20.286Zm108.155.188A7.341,7.341,0,0,1,112.9,19.46a4.736,4.736,0,0,1-1.312-1.315,4.635,4.635,0,0,1-.617-1.353,2.836,2.836,0,0,1-.115-1.089h3.163a2.933,2.933,0,0,0,1.235,1.8,4.484,4.484,0,0,0,2.7.714,5.206,5.206,0,0,0,1.736-.225,1.5,1.5,0,0,0,.85-.639,1.993,1.993,0,0,0,.231-.939,1.236,1.236,0,0,0-.386-1.014,2.6,2.6,0,0,0-1.119-.6,13.706,13.706,0,0,0-1.852-.413c-.772-.15-1.5-.376-2.238-.563A11.82,11.82,0,0,1,113.209,13a3.971,3.971,0,0,1-1.39-1.239,3.455,3.455,0,0,1-.5-1.84,3.518,3.518,0,0,1,.5-1.8,4.158,4.158,0,0,1,1.351-1.353,6.294,6.294,0,0,1,2.045-.864,11.018,11.018,0,0,1,2.547-.3,7.978,7.978,0,0,1,3.357.6,4.716,4.716,0,0,1,2.006,1.728,4.626,4.626,0,0,1,.695,2.555h-3.01a2.616,2.616,0,0,0-.926-1.691,3.574,3.574,0,0,0-2.122-.526,3.75,3.75,0,0,0-2.122.489,1.463,1.463,0,0,0-.734,1.277,1.272,1.272,0,0,0,.464,1.014,5.029,5.029,0,0,0,1.35.6c.579.187,1.274.338,2.084.526.733.188,1.428.376,2.083.6a9.572,9.572,0,0,1,1.776.789,3.733,3.733,0,0,1,1.234,1.2,3.254,3.254,0,0,1,.5,1.728,3.766,3.766,0,0,1-.772,2.329,4.527,4.527,0,0,1-2.161,1.5,10.182,10.182,0,0,1-3.395.526A10.365,10.365,0,0,1,115.023,20.474Zm-33.955.113V5.9H84.5v4.245a8.847,8.847,0,0,1,.54-1.353,7.8,7.8,0,0,1,1.041-1.54,4.751,4.751,0,0,1,1.621-1.2,4.941,4.941,0,0,1,2.277-.488V8.716a5.56,5.56,0,0,0-2.817.676,6.157,6.157,0,0,0-1.891,1.653A8.272,8.272,0,0,0,84.5,12.4v8.189Zm-25.659,0V12.134a3.688,3.688,0,0,0-.425-1.953A2.9,2.9,0,0,0,53.71,9.016,5.252,5.252,0,0,0,51.473,8.6a5.785,5.785,0,0,0-2.586.563A5.26,5.26,0,0,0,47,10.67a4.084,4.084,0,0,0-.656,1.2v8.716H42.907V0h3.434V10.143A6.918,6.918,0,0,1,46.8,9.016,6.042,6.042,0,0,1,48.155,7.25a5.977,5.977,0,0,1,2.006-1.239,6.963,6.963,0,0,1,2.547-.451,8.53,8.53,0,0,1,2.47.338A5.6,5.6,0,0,1,57.106,6.95a5.936,5.936,0,0,1,1.312,1.728,6.35,6.35,0,0,1,.424,2.367v9.542Z" transform="translate(31.601)" fill="#fff"/>
  </g>
</svg>
