<svg id="Coherus_Solutions_logo_Copy" data-name="Coherus_Solutions_logo Copy" xmlns="http://www.w3.org/2000/svg" xmlns:xlink="http://www.w3.org/1999/xlink" width="276.49" height="91.28" viewBox="0 0 276.49 91.28">
  <defs>
    <linearGradient id="linear-gradient" x1="0.068" y1="0.671" x2="1.062" y2="0.277" gradientUnits="objectBoundingBox">
      <stop offset="0.155" stop-color="#f26929"/>
      <stop offset="0.556" stop-color="#b12029"/>
    </linearGradient>
    <linearGradient id="linear-gradient-2" x1="0.084" y1="0.687" x2="0.996" y2="0.277" gradientUnits="objectBoundingBox">
      <stop offset="0.235" stop-color="#f26929"/>
      <stop offset="0.86" stop-color="#b12029"/>
    </linearGradient>
  </defs>
  <path id="Shape" d="M11.61,19.38a7.77,7.77,0,1,0-7.77-7.77H0A11.61,11.61,0,0,1,19.82,3.4a11.533,11.533,0,0,1,2.76,4.42.265.265,0,0,1-.24.1L21.83,7.8a.249.249,0,0,0-.31.18l-.31,1.19a.249.249,0,0,0,.18.31l1.36.311a.25.25,0,0,0,.31-.18l.08-.29a.14.14,0,0,1,.02-.06,10.83,10.83,0,0,1,.06,2.35A11.609,11.609,0,0,1,11.61,23.22Z" transform="translate(223.94 11.26)" fill="url(#linear-gradient)"/>
  <g id="Group" transform="translate(187.44 13.18)">
    <path id="Path" d="M9.69,9.69A9.692,9.692,0,0,1,0,0" transform="translate(19.41 9.7)" fill="none" stroke="#00acd7" stroke-miterlimit="10" stroke-width="3.838"/>
    <path id="Path-2" data-name="Path" d="M9.69,19.38a9.69,9.69,0,1,1,9.69-9.69" transform="translate(0 0)" fill="none" stroke="#00acd7" stroke-miterlimit="10" stroke-width="3.838"/>
  </g>
  <path id="Path-3" data-name="Path" d="M9.69,0A9.692,9.692,0,0,1,0,9.69" transform="translate(216.17 22.88)" fill="none" stroke="#f26929" stroke-miterlimit="10" stroke-width="3.838"/>
  <g id="Group-2" data-name="Group" transform="translate(197.1 13.21)">
    <path id="Path-4" data-name="Path" d="M9.69,0A9.692,9.692,0,0,1,0,9.69" transform="translate(0 9.64)" fill="none" stroke="#00739a" stroke-miterlimit="10" stroke-width="3.838"/>
    <path id="Path-5" data-name="Path" d="M9.69,9.69A9.692,9.692,0,0,1,0,0" transform="translate(28.85 9.64)" fill="none" stroke="#00739a" stroke-miterlimit="10" stroke-width="3.838"/>
    <path id="Path-6" data-name="Path" d="M0,9.69A9.692,9.692,0,0,1,9.69,0" transform="translate(9.71 0)" fill="none" stroke="#00739a" stroke-miterlimit="10" stroke-width="3.838"/>
    <path id="Path-7" data-name="Path" d="M0,0A9.692,9.692,0,0,1,9.69,9.69" transform="translate(19.16)" fill="none" stroke="#00739a" stroke-miterlimit="10" stroke-width="3.838"/>
  </g>
  <circle id="Oval" cx="4.44" cy="4.44" r="4.44" transform="translate(192.53)" fill="#00acd7"/>
  <circle id="Oval-2" data-name="Oval" cx="4.44" cy="4.44" r="4.44" transform="translate(211.77)" fill="#00739a"/>
  <circle id="Oval-3" data-name="Oval" cx="4.44" cy="4.44" r="4.44" transform="translate(231.02)" fill="url(#linear-gradient-2)"/>
  <path id="Shape-2" data-name="Shape" d="M9.453,24.288a.59.59,0,0,1-.155-.021l-1.96-.509a2.834,2.834,0,0,1-2.132-1.2c-.795-1.186-.811-3.188-.048-5.95a6.526,6.526,0,0,0-.05-2.51c-.363-1.95-1.863-4.108-3.186-6.012C.84,6.53-.093,5.186.007,4.467A2.424,2.424,0,0,1,.432,4.14c.387-.264.869-.593.955-.923l.08-.3a.387.387,0,0,1,.383-.291.412.412,0,0,1,.1.011l1.57.41.012,0a1.775,1.775,0,0,0,.4.066.653.653,0,0,0,.331-.089l.509-.3a.631.631,0,0,0,.33-.42l.25-.969a.248.248,0,0,1,.243-.187.245.245,0,0,1,.056.007l1.16.3a.286.286,0,0,1,.15.11.226.226,0,0,1,.02.18l-.3,1.16a.254.254,0,0,1-.3.18l-.97-.25a.778.778,0,0,0-.187-.026.657.657,0,0,0-.342.106l-.51.3a.852.852,0,0,0-.38.641l-.1.39c-.164.635-.06,1.471,1.36,1.849l4.94,1.281a2.749,2.749,0,0,0,.669.115,1.066,1.066,0,0,0,.56-.156L14,5.817a1.015,1.015,0,0,0,.54-.689l.42-1.61a.4.4,0,0,1,.5-.29l1.92.5a.406.406,0,0,1,.24.18.392.392,0,0,1,.04.3l-.5,1.921a.4.4,0,0,1-.5.29L15.048,6a1.17,1.17,0,0,0-.308-.046,1.1,1.1,0,0,0-.563.177L11.6,7.647a1.428,1.428,0,0,0-.63,1.059l-.329,1.281a.659.659,0,0,1-.607.4.459.459,0,0,1-.1-.011l-1-.26a.384.384,0,0,0-.092-.011.377.377,0,0,0-.369.281l-.28,1.1a.345.345,0,0,1-.318.216.253.253,0,0,1-.052-.005l-.46-.121a.247.247,0,0,0-.055-.006.271.271,0,0,0-.255.186l-.311,1.191a.267.267,0,0,0,.18.31l1.19.31a.248.248,0,0,0,.057.007.268.268,0,0,0,.254-.187l.08-.29a.329.329,0,0,1,.335-.291.721.721,0,0,1,.195.031l3.17.82a2.116,2.116,0,0,0,.508.087.808.808,0,0,0,.421-.116l.15-.09a.762.762,0,0,0,.409-.52L14,11.807a.309.309,0,0,1,.3-.229.3.3,0,0,1,.071.009l1.44.371a.281.281,0,0,1,.18.139.305.305,0,0,1,.03.23l-.37,1.44a.308.308,0,0,1-.3.229.3.3,0,0,1-.072-.009l-1.21-.31a1,1,0,0,0-.237-.032.761.761,0,0,0-.414.132l-.149.09a1.1,1.1,0,0,0-.477.786l0,.014-.5,1.949a.489.489,0,0,1-.467.367.475.475,0,0,1-.124-.017l-3.06-.79a1.48,1.48,0,0,0-.369-.048,1.7,1.7,0,0,0-1.537,1.584,1.513,1.513,0,0,0,1.146,1.765l2.49.64a.626.626,0,0,1,.45.76l-.76,2.939A.632.632,0,0,1,9.453,24.288ZM5.472,19.3a.32.32,0,0,0-.314.239l-.391,1.51a.325.325,0,0,0,.23.39l1.33.39a.314.314,0,0,0,.089.013.306.306,0,0,0,.3-.243l.39-1.51a.335.335,0,0,0-.041-.252.3.3,0,0,0-.189-.138l-1.33-.391A.333.333,0,0,0,5.472,19.3ZM5.5,9.253a.151.151,0,0,0-.15.114l-.19.75a.159.159,0,0,0,.019.12.148.148,0,0,0,.091.07l.75.19a.123.123,0,0,0,.044.008.158.158,0,0,0,.146-.118l.19-.75a.154.154,0,0,0-.11-.19l-.75-.19a.18.18,0,0,0-.04,0ZM7.42,7.567a.268.268,0,0,0-.252.2l-.32,1.22a.246.246,0,0,0,.023.188.28.28,0,0,0,.168.131l1.219.32a.248.248,0,0,0,.067.009.27.27,0,0,0,.253-.2L8.9,8.217a.245.245,0,0,0-.027-.2A.28.28,0,0,0,8.707,7.9L7.488,7.577A.246.246,0,0,0,7.42,7.567ZM2.092,5.26a.24.24,0,0,0-.225.167l-.28,1.06a.236.236,0,0,0,.16.28l1.06.28a.232.232,0,0,0,.056.007.229.229,0,0,0,.224-.177l.28-1.06a.237.237,0,0,0-.16-.28l-1.06-.27A.23.23,0,0,0,2.092,5.26ZM14.44,22.985a.184.184,0,0,1-.052-.008l-.91-.24a.21.21,0,0,1-.124-.1.179.179,0,0,1-.016-.137l.239-.91a.208.208,0,0,1,.192-.147.168.168,0,0,1,.048.007l.91.24a.21.21,0,0,1,.12.095.184.184,0,0,1,.021.144l-.24.91A.2.2,0,0,1,14.44,22.985Zm-1.307-2.538a.316.316,0,0,1-.076-.009l-1.39-.36a.3.3,0,0,1-.18-.131.273.273,0,0,1-.03-.22l.36-1.39a.287.287,0,0,1,.284-.219.316.316,0,0,1,.076.009l1.18.31.01,0a1.3,1.3,0,0,0,.293.047.49.49,0,0,0,.256-.071l.33-.19a.47.47,0,0,0,.249-.319l.211-.73a.187.187,0,0,1,.177-.138.183.183,0,0,1,.052.008l.88.23a.152.152,0,0,1,.11.08.215.215,0,0,1,.021.139l-.23.88a.187.187,0,0,1-.177.138.183.183,0,0,1-.053-.008l-.74-.19a.539.539,0,0,0-.139-.02.51.51,0,0,0-.261.08l-.33.19c-.188.109-.228.254-.288.473l0,.007-.311,1.18A.287.287,0,0,1,13.133,20.446Zm4.1-3.234a.134.134,0,0,1-.036-.005l-.609-.16a.13.13,0,0,1-.08-.062.127.127,0,0,1-.01-.1l.159-.609a.128.128,0,0,1,.16-.09l.61.159a.128.128,0,0,1,.09.16l-.16.61A.128.128,0,0,1,17.234,17.212Zm.655-5.588a.2.2,0,0,1-.051-.007l-.911-.24a.2.2,0,0,1-.139-.24l.24-.91a.2.2,0,0,1,.187-.147.193.193,0,0,1,.052.007l.91.239a.2.2,0,0,1,.14.24l-.24.91A.2.2,0,0,1,17.889,11.624Zm-4.319-.888a.283.283,0,0,1-.072-.009l-1.309-.34a.28.28,0,0,1-.173-.131.273.273,0,0,1-.027-.21l.339-1.31a.276.276,0,0,1,.34-.2l1.31.339a.277.277,0,0,1,.2.34l-.34,1.31A.269.269,0,0,1,13.569,10.736Zm5.894-2.625a.149.149,0,0,1-.036,0l-.72-.19a.16.16,0,0,1-.11-.19l.19-.72a.152.152,0,0,1,.151-.115.182.182,0,0,1,.039,0l.72.19a.155.155,0,0,1,.11.191l-.19.72A.16.16,0,0,1,19.463,8.112ZM10.677,6.284a.425.425,0,0,1-.12-.017l-2.12-.55a.432.432,0,0,1-.268-.2.465.465,0,0,1-.052-.351l.55-2.119a.446.446,0,0,1,.437-.334.463.463,0,0,1,.113.014l2.12.55a.436.436,0,0,1,.273.208.458.458,0,0,1,.047.342l-.55,2.12A.459.459,0,0,1,10.677,6.284Zm3.487-3.963a.148.148,0,0,1-.037,0l-.72-.19a.147.147,0,0,1-.092-.072.162.162,0,0,1-.017-.118l.19-.72a.151.151,0,0,1,.15-.114.184.184,0,0,1,.039,0l.72.19a.155.155,0,0,1,.111.19l-.191.72A.159.159,0,0,1,14.164,2.321Zm-5.515-.79a.234.234,0,0,1-.041,0L7.7,1.3a.2.2,0,0,1-.14-.24l.23-.91A.208.208,0,0,1,7.979,0a.169.169,0,0,1,.049.007l.91.23a.214.214,0,0,1,.119.094.18.18,0,0,1,.021.146l-.229.91A.205.205,0,0,1,8.649,1.531Z" transform="translate(238.502 7.533)" fill="#b12029"/>
  <g id="Group-3" data-name="Group" transform="translate(0 78.78)">
    <path id="Path-8" data-name="Path" d="M0,.03H1.86L4.2,7.3,6.61,0H8.07l2.41,7.3L12.82.03h1.81l-3.4,9.88H9.73L7.32,2.86,4.9,9.91H3.42Z" transform="translate(0 0.39)" fill="#b12029"/>
    <path id="Shape-3" data-name="Shape" d="M3.93,7.72A3.835,3.835,0,0,1,0,3.9V3.87A3.869,3.869,0,0,1,3.95,0,3.968,3.968,0,0,1,6.771,1.125,3.79,3.79,0,0,1,7.89,3.84v.03A3.865,3.865,0,0,1,3.93,7.72ZM3.92,1.49A2.217,2.217,0,0,0,1.69,3.84v.03A2.288,2.288,0,0,0,3.94,6.24,2.221,2.221,0,0,0,6.19,3.9V3.87A2.276,2.276,0,0,0,3.92,1.49Z" transform="translate(14.31 2.67)" fill="#b12029"/>
    <path id="Path-9" data-name="Path" d="M0,.142H1.69v1.67A2.629,2.629,0,0,1,4.31,0v1.79h-.1c-1.48,0-2.52.97-2.52,2.93v2.81H0Z" transform="translate(23.35 2.688)" fill="#b12029"/>
    <path id="Path-10" data-name="Path" d="M0,0H1.69V6.11L4.76,2.83H6.82L3.88,5.84l3.04,4.38H4.93L2.74,7.01,1.69,8.1v2.12H0V0Z" transform="translate(28.57)" fill="#b12029"/>
    <path id="Shape-4" data-name="Shape" d="M.07,10.14V2.75H1.76v7.39ZM0,1.61V0H1.82V1.61Z" transform="translate(36.19 0.08)" fill="#b12029"/>
    <path id="Path-11" data-name="Path" d="M0,.16H1.69V1.29A2.675,2.675,0,0,1,4,0,2.531,2.531,0,0,1,6.63,2.83V7.55H4.94V3.35c0-1.15-.57-1.81-1.58-1.81A1.648,1.648,0,0,0,1.69,3.37V7.55H0V.16Z" transform="translate(39.61 2.67)" fill="#b12029"/>
    <path id="Shape-5" data-name="Shape" d="M3.68,9.82A6.44,6.44,0,0,1,.37,8.93L1,7.66a4.794,4.794,0,0,0,2.63.78A2.061,2.061,0,0,0,5.97,6.17V5.6A3.087,3.087,0,0,1,3.36,6.96a3.357,3.357,0,0,1-2.332-.916A3.415,3.415,0,0,1,0,3.5V3.47A3.425,3.425,0,0,1,1.035.914,3.355,3.355,0,0,1,3.36,0,3.161,3.161,0,0,1,5.95,1.26V.15H7.66V6.03a3.8,3.8,0,0,1-.94,2.79A4.156,4.156,0,0,1,3.68,9.82Zm.14-8.4a2,2,0,0,0-2.1,2.03V3.48a2.02,2.02,0,0,0,2.1,2.03A2.057,2.057,0,0,0,5.99,3.48V3.45A2.057,2.057,0,0,0,3.82,1.42Z" transform="translate(47.34 2.68)" fill="#b12029"/>
    <path id="Path-12" data-name="Path" d="M.94,7.38V3.49H0V2.03H.94V0h1.7V2.03H4.63V3.49H2.64V7.12a.8.8,0,0,0,.91.92A2.256,2.256,0,0,0,4.6,7.79V9.18a2.91,2.91,0,0,1-1.53.38A1.908,1.908,0,0,1,.94,7.38Z" transform="translate(59.61 0.8)" fill="#b12029"/>
    <path id="Shape-6" data-name="Shape" d="M3.93,7.72A3.961,3.961,0,0,1,1.114,6.6,3.767,3.767,0,0,1,0,3.9V3.87A3.869,3.869,0,0,1,3.95,0,3.968,3.968,0,0,1,6.771,1.125,3.79,3.79,0,0,1,7.89,3.84v.03A3.865,3.865,0,0,1,3.93,7.72ZM3.92,1.49A2.217,2.217,0,0,0,1.69,3.84v.03A2.292,2.292,0,0,0,3.95,6.24,2.216,2.216,0,0,0,6.19,3.9V3.87A2.276,2.276,0,0,0,3.92,1.49Z" transform="translate(64.78 2.67)" fill="#b12029"/>
    <path id="Shape-7" data-name="Shape" d="M3.66,9.82A6.4,6.4,0,0,1,.37,8.93L1,7.66a4.794,4.794,0,0,0,2.63.78A2.061,2.061,0,0,0,5.97,6.17V5.6A3.087,3.087,0,0,1,3.36,6.96a3.357,3.357,0,0,1-2.332-.916A3.415,3.415,0,0,1,0,3.5V3.47A3.425,3.425,0,0,1,1.035.914,3.355,3.355,0,0,1,3.36,0,3.161,3.161,0,0,1,5.95,1.26V.15H7.64V6.03A3.8,3.8,0,0,1,6.7,8.82,4.152,4.152,0,0,1,3.66,9.82Zm.149-8.4a2,2,0,0,0-2.1,2.03V3.48a2.02,2.02,0,0,0,2.1,2.03A2.057,2.057,0,0,0,5.98,3.48V3.45A2.057,2.057,0,0,0,3.81,1.42Z" transform="translate(73.44 2.68)" fill="#b12029"/>
    <path id="Shape-8" data-name="Shape" d="M3.77,7.73A3.7,3.7,0,0,1,0,3.88V3.85A4,4,0,0,1,1.014,1.13,3.476,3.476,0,0,1,3.61,0,3.284,3.284,0,0,1,6.261,1.191,4.421,4.421,0,0,1,7.15,3.98a4.187,4.187,0,0,1-.03.481H1.68A2.064,2.064,0,0,0,3.81,6.34a2.668,2.668,0,0,0,2-.879l.99.879A3.77,3.77,0,0,1,3.77,7.73ZM3.6,1.39A2,2,0,0,0,1.68,3.34h3.8A1.912,1.912,0,0,0,3.6,1.39Z" transform="translate(82.25 2.67)" fill="#b12029"/>
    <path id="Path-13" data-name="Path" d="M.94,7.38V3.49H0V2.03H.94V0h1.7V2.03H4.63V3.49H2.64V7.12a.8.8,0,0,0,.91.92A2.256,2.256,0,0,0,4.6,7.79V9.18a2.91,2.91,0,0,1-1.53.38A1.908,1.908,0,0,1,.94,7.38Z" transform="translate(89.96 0.8)" fill="#b12029"/>
    <path id="Path-14" data-name="Path" d="M0,0H1.69V3.96A2.675,2.675,0,0,1,4,2.67,2.531,2.531,0,0,1,6.63,5.5v4.72H4.94V6.02c0-1.15-.57-1.81-1.58-1.81A1.648,1.648,0,0,0,1.69,6.04v4.18H0Z" transform="translate(95.75)" fill="#b12029"/>
    <path id="Shape-9" data-name="Shape" d="M3.78,7.73A3.7,3.7,0,0,1,0,3.88V3.85A4,4,0,0,1,1.014,1.13,3.476,3.476,0,0,1,3.61,0,3.284,3.284,0,0,1,6.261,1.191,4.421,4.421,0,0,1,7.15,3.98a4.187,4.187,0,0,1-.03.481H1.69A2.064,2.064,0,0,0,3.82,6.34a2.668,2.668,0,0,0,2-.879l.99.879A3.77,3.77,0,0,1,3.78,7.73ZM3.6,1.39A2,2,0,0,0,1.68,3.34h3.8A1.912,1.912,0,0,0,3.6,1.39Z" transform="translate(103.46 2.67)" fill="#b12029"/>
    <path id="Path-15" data-name="Path" d="M0,.142H1.69v1.67A2.629,2.629,0,0,1,4.31,0v1.79h-.1c-1.48,0-2.52.97-2.52,2.93v2.81H0V.142Z" transform="translate(111.76 2.688)" fill="#b12029"/>
    <path id="Path-16" data-name="Path" d="M.94,7.38V3.49H0V2.03H.94V0h1.7V2.03H4.63V3.49H2.64V7.12a.8.8,0,0,0,.91.92A2.256,2.256,0,0,0,4.6,7.79V9.18a2.91,2.91,0,0,1-1.53.38A1.912,1.912,0,0,1,.94,7.38Z" transform="translate(120.03 0.8)" fill="#b12029"/>
    <path id="Shape-10" data-name="Shape" d="M3.93,7.72A3.835,3.835,0,0,1,0,3.9V3.87A3.869,3.869,0,0,1,3.95,0,3.968,3.968,0,0,1,6.771,1.125,3.79,3.79,0,0,1,7.89,3.84v.03A3.865,3.865,0,0,1,3.93,7.72ZM3.92,1.49A2.217,2.217,0,0,0,1.69,3.84v.03A2.292,2.292,0,0,0,3.95,6.24,2.216,2.216,0,0,0,6.19,3.9V3.87A2.276,2.276,0,0,0,3.92,1.49Z" transform="translate(125.2 2.67)" fill="#b12029"/>
    <path id="Shape-11" data-name="Shape" d="M3.79,7.73A3.707,3.707,0,0,1,0,3.88V3.85A4,4,0,0,1,1.014,1.13,3.476,3.476,0,0,1,3.61,0,3.284,3.284,0,0,1,6.261,1.191,4.421,4.421,0,0,1,7.15,3.98a4.187,4.187,0,0,1-.03.481H1.69A2.064,2.064,0,0,0,3.82,6.34a2.668,2.668,0,0,0,2-.879l1,.879A3.77,3.77,0,0,1,3.79,7.73ZM3.6,1.39A2,2,0,0,0,1.68,3.34h3.8A1.912,1.912,0,0,0,3.6,1.39Z" transform="translate(137.48 2.67)" fill="#b12029"/>
    <path id="Path-17" data-name="Path" d="M.01.16H1.7V1.29A2.675,2.675,0,0,1,4.01,0,2.531,2.531,0,0,1,6.64,2.83V7.55H4.94V3.35c0-1.15-.57-1.81-1.58-1.81A1.648,1.648,0,0,0,1.69,3.37V7.55H0V.16Z" transform="translate(145.77 2.67)" fill="#b12029"/>
    <path id="Path-18" data-name="Path" d="M0,6.57.76,5.42a4.2,4.2,0,0,0,2.42.91c.73,0,1.15-.31,1.15-.8V5.5c0-.57-.78-.77-1.65-1.04C1.59,4.15.37,3.7.37,2.29V2.26A2.361,2.361,0,0,1,3,0,5.147,5.147,0,0,1,5.72.84L5.05,2.05a4.319,4.319,0,0,0-2.09-.7c-.66,0-1.04.31-1.04.73v.03c0,.55.8.77,1.67,1.05,1.08.34,2.3.83,2.3,2.16v.03c0,1.56-1.21,2.33-2.75,2.33A5.229,5.229,0,0,1,0,6.57Z" transform="translate(153.3 2.69)" fill="#b12029"/>
    <path id="Path-19" data-name="Path" d="M0,4.71V0H1.7V4.2c0,1.15.57,1.79,1.58,1.79A1.635,1.635,0,0,0,4.95,4.17V0H6.66V7.39H4.95V6.24a2.661,2.661,0,0,1-2.31,1.3A2.529,2.529,0,0,1,0,4.71Z" transform="translate(160.27 2.83)" fill="#b12029"/>
    <path id="Path-20" data-name="Path" d="M0,.142H1.69v1.67A2.629,2.629,0,0,1,4.31,0v1.79h-.1c-1.48,0-2.52.97-2.52,2.93v2.81H0Z" transform="translate(168.47 2.688)" fill="#b12029"/>
    <path id="Shape-12" data-name="Shape" d="M3.79,7.73A3.707,3.707,0,0,1,0,3.88V3.85A4,4,0,0,1,1.014,1.13,3.476,3.476,0,0,1,3.61,0,3.284,3.284,0,0,1,6.261,1.191,4.421,4.421,0,0,1,7.15,3.98a4.187,4.187,0,0,1-.03.481H1.69A2.064,2.064,0,0,0,3.82,6.34a2.668,2.668,0,0,0,2-.879l1,.879A3.77,3.77,0,0,1,3.79,7.73ZM3.59,1.39A2,2,0,0,0,1.67,3.34h3.8A1.912,1.912,0,0,0,3.59,1.39Z" transform="translate(173.04 2.67)" fill="#b12029"/>
    <path id="Shape-13" data-name="Shape" d="M1.69,9.8H0V.16H1.69V1.39A2.965,2.965,0,0,1,4.21,0,3.3,3.3,0,0,1,6.578.994,3.955,3.955,0,0,1,7.64,3.84v.03A3.958,3.958,0,0,1,6.581,6.709a3.291,3.291,0,0,1-2.371,1,3.022,3.022,0,0,1-2.52-1.3V9.8ZM3.8,1.47a2.074,2.074,0,0,0-1.511.653A2.463,2.463,0,0,0,1.64,3.84v.03A2.248,2.248,0,0,0,3.8,6.24,2.028,2.028,0,0,0,5.3,5.6,2.475,2.475,0,0,0,5.92,3.87V3.84A2.206,2.206,0,0,0,3.8,1.47Z" transform="translate(184.98 2.67)" fill="#b12029"/>
    <path id="Shape-14" data-name="Shape" d="M2.62,7.64A2.377,2.377,0,0,1,0,5.36V5.33C0,3.818,1.112,2.95,3.05,2.95a6.281,6.281,0,0,1,1.99.31V3.08c0-1.053-.633-1.61-1.83-1.61a5.215,5.215,0,0,0-2.12.46L.64.6A6.393,6.393,0,0,1,3.43,0,3.271,3.271,0,0,1,5.88.83a3.039,3.039,0,0,1,.8,2.281V7.48H5.03V6.56A2.991,2.991,0,0,1,2.62,7.64Zm.77-3.61C2.3,4.03,1.65,4.49,1.65,5.26V5.29c0,.67.579,1.12,1.44,1.12,1.147,0,1.98-.668,1.98-1.589v-.5A4.687,4.687,0,0,0,3.39,4.03Z" transform="translate(193.32 2.74)" fill="#b12029"/>
    <path id="Path-21" data-name="Path" d="M.94,7.38V3.49H0V2.03H.94V0h1.7V2.03H4.63V3.49H2.64V7.12a.8.8,0,0,0,.91.92A2.256,2.256,0,0,0,4.6,7.79V9.18a2.91,2.91,0,0,1-1.53.38A1.908,1.908,0,0,1,.94,7.38Z" transform="translate(200.81 0.8)" fill="#b12029"/>
    <path id="Shape-15" data-name="Shape" d="M.07,10.14V2.75H1.76v7.39ZM0,1.61V0H1.82V1.61Z" transform="translate(206.62 0.08)" fill="#b12029"/>
    <path id="Shape-16" data-name="Shape" d="M3.79,7.73A3.707,3.707,0,0,1,0,3.88V3.85A4,4,0,0,1,1.014,1.13,3.476,3.476,0,0,1,3.61,0,3.284,3.284,0,0,1,6.261,1.191,4.421,4.421,0,0,1,7.15,3.98a4.187,4.187,0,0,1-.03.481H1.69A2.064,2.064,0,0,0,3.82,6.34a2.668,2.668,0,0,0,2-.879l1,.879A3.77,3.77,0,0,1,3.79,7.73ZM3.6,1.39A2,2,0,0,0,1.68,3.34h3.8A1.912,1.912,0,0,0,3.6,1.39Z" transform="translate(209.63 2.67)" fill="#b12029"/>
    <path id="Path-22" data-name="Path" d="M0,.16H1.7V1.29A2.675,2.675,0,0,1,4.01,0,2.531,2.531,0,0,1,6.64,2.83V7.55H4.95V3.35c0-1.15-.57-1.81-1.58-1.81A1.648,1.648,0,0,0,1.7,3.37V7.55H0Z" transform="translate(217.93 2.67)" fill="#b12029"/>
    <path id="Path-23" data-name="Path" d="M.94,7.38V3.49H0V2.03H.94V0H2.63V2.03H4.62V3.49H2.63V7.12a.8.8,0,0,0,.91.92,2.256,2.256,0,0,0,1.05-.25V9.18a2.91,2.91,0,0,1-1.53.38A1.9,1.9,0,0,1,.94,7.38Z" transform="translate(225.47 0.8)" fill="#b12029"/>
    <path id="Shape-17" data-name="Shape" d="M2.62,7.64A2.377,2.377,0,0,1,0,5.36V5.33C0,3.818,1.112,2.95,3.05,2.95a6.163,6.163,0,0,1,1.99.31V3.08c0-1.053-.633-1.61-1.83-1.61a5.215,5.215,0,0,0-2.12.46L.64.6A6.393,6.393,0,0,1,3.43,0,3.271,3.271,0,0,1,5.88.83a3.039,3.039,0,0,1,.8,2.281V7.48H5.03V6.56A3.02,3.02,0,0,1,2.62,7.64Zm.77-3.61C2.3,4.03,1.65,4.49,1.65,5.26V5.29c0,.67.579,1.12,1.44,1.12,1.147,0,1.98-.668,1.98-1.589v-.5A4.687,4.687,0,0,0,3.39,4.03Z" transform="translate(234.4 2.74)" fill="#b12029"/>
    <path id="Path-24" data-name="Path" d="M0,3.9V3.87A3.818,3.818,0,0,1,3.85,0,3.772,3.772,0,0,1,6.81,1.27L5.75,2.4a2.464,2.464,0,0,0-1.91-.92A2.226,2.226,0,0,0,1.7,3.83v.03A2.238,2.238,0,0,0,3.91,6.23a2.571,2.571,0,0,0,1.92-.91L6.85,6.33A3.752,3.752,0,0,1,3.82,7.72,3.769,3.769,0,0,1,0,3.9Z" transform="translate(242.14 2.67)" fill="#b12029"/>
    <path id="Path-25" data-name="Path" d="M0,3.9V3.87A3.818,3.818,0,0,1,3.85,0,3.772,3.772,0,0,1,6.81,1.27L5.75,2.4a2.464,2.464,0,0,0-1.91-.92A2.226,2.226,0,0,0,1.7,3.83v.03A2.238,2.238,0,0,0,3.91,6.23a2.571,2.571,0,0,0,1.92-.91L6.85,6.33A3.752,3.752,0,0,1,3.82,7.72,3.776,3.776,0,0,1,0,3.9Z" transform="translate(249.36 2.67)" fill="#b12029"/>
    <path id="Shape-18" data-name="Shape" d="M3.79,7.73A3.707,3.707,0,0,1,0,3.88V3.85A4,4,0,0,1,1.014,1.13,3.476,3.476,0,0,1,3.61,0,3.284,3.284,0,0,1,6.261,1.191,4.421,4.421,0,0,1,7.15,3.98a4.187,4.187,0,0,1-.03.481H1.69A2.064,2.064,0,0,0,3.82,6.34a2.668,2.668,0,0,0,2-.879l1,.879A3.77,3.77,0,0,1,3.79,7.73ZM3.6,1.39A2.009,2.009,0,0,0,1.68,3.34h3.8A1.912,1.912,0,0,0,3.6,1.39Z" transform="translate(256.59 2.67)" fill="#b12029"/>
    <path id="Path-26" data-name="Path" d="M0,6.57.76,5.42a4.2,4.2,0,0,0,2.42.91c.73,0,1.15-.31,1.15-.8V5.5c0-.57-.79-.77-1.65-1.04C1.59,4.15.37,3.7.37,2.29V2.26A2.361,2.361,0,0,1,3,0,5.147,5.147,0,0,1,5.72.84L5.05,2.05a4.319,4.319,0,0,0-2.09-.7c-.66,0-1.04.31-1.04.73v.03c0,.55.8.77,1.67,1.05,1.08.34,2.3.83,2.3,2.16v.03c0,1.56-1.21,2.33-2.75,2.33A5.252,5.252,0,0,1,0,6.57Z" transform="translate(264.29 2.69)" fill="#b12029"/>
    <path id="Path-27" data-name="Path" d="M0,6.57.76,5.42a4.2,4.2,0,0,0,2.42.91c.73,0,1.15-.31,1.15-.8V5.5c0-.57-.79-.77-1.65-1.04C1.59,4.15.37,3.7.37,2.29V2.26A2.361,2.361,0,0,1,3,0,5.147,5.147,0,0,1,5.72.84L5.05,2.05a4.319,4.319,0,0,0-2.09-.7c-.66,0-1.04.31-1.04.73v.03c0,.55.8.77,1.67,1.05,1.08.34,2.3.83,2.3,2.16v.03c0,1.56-1.21,2.33-2.75,2.33A5.274,5.274,0,0,1,0,6.57Z" transform="translate(270.6 2.69)" fill="#b12029"/>
  </g>
  <g id="Group-4" data-name="Group" transform="translate(40.56 3.47)">
    <path id="Path-28" data-name="Path" d="M13.12,27.23a12.845,12.845,0,0,1-5.15-1.04A12.685,12.685,0,0,1,3.79,23.3,13.431,13.431,0,0,1,1,18.97,14.173,14.173,0,0,1,0,13.6,13.953,13.953,0,0,1,1,8.28,13.6,13.6,0,0,1,3.79,3.96,13.114,13.114,0,0,1,7.96,1.05,12.676,12.676,0,0,1,13.13,0a13.421,13.421,0,0,1,4.51.68,12.908,12.908,0,0,1,3.79,2.24,2.079,2.079,0,0,1,.42.42,1.159,1.159,0,0,1,.2.44,2.65,2.65,0,0,1,.05.53,1.379,1.379,0,0,1-.46,1.07,1.764,1.764,0,0,1-2.36.06,10.493,10.493,0,0,0-2.6-1.67,9.225,9.225,0,0,0-3.55-.58,8.758,8.758,0,0,0-3.77.82A9.845,9.845,0,0,0,6.25,6.25,10.342,10.342,0,0,0,4.16,9.56a10.813,10.813,0,0,0-.75,4.03,10.894,10.894,0,0,0,.75,4.06,10.564,10.564,0,0,0,2.09,3.32A9.928,9.928,0,0,0,9.36,23.2a9.111,9.111,0,0,0,3.77.8,8.967,8.967,0,0,0,3.28-.6,12.728,12.728,0,0,0,2.98-1.65,1.837,1.837,0,0,1,1.21-.39,1.466,1.466,0,0,1,1,.48,1.618,1.618,0,0,1,.41,1.17,1.663,1.663,0,0,1-.14.66,1.906,1.906,0,0,1-.41.59,13.7,13.7,0,0,1-3.93,2.21A13.02,13.02,0,0,1,13.12,27.23Z" transform="translate(0 0)" fill="#00739a"/>
    <path id="Shape-19" data-name="Shape" d="M9.38,18.87A9.576,9.576,0,0,1,4.52,17.66a8.661,8.661,0,0,1-3.31-3.33A9.821,9.821,0,0,1,0,9.45,9.73,9.73,0,0,1,1.21,4.54,8.715,8.715,0,0,1,4.52,1.21,9.727,9.727,0,0,1,9.38,0a9.567,9.567,0,0,1,4.83,1.21,8.8,8.8,0,0,1,3.31,3.33,9.875,9.875,0,0,1,1.21,4.91,9.911,9.911,0,0,1-1.19,4.88,8.559,8.559,0,0,1-3.3,3.33A9.714,9.714,0,0,1,9.38,18.87Zm0-15.81A5.776,5.776,0,0,0,4.11,6.14a6.871,6.871,0,0,0-.78,3.31,6.8,6.8,0,0,0,.78,3.3A5.788,5.788,0,0,0,6.25,14.99a6.047,6.047,0,0,0,3.13.82,5.959,5.959,0,0,0,3.13-.82,5.685,5.685,0,0,0,2.12-2.24,6.914,6.914,0,0,0,.76-3.3,6.991,6.991,0,0,0-.76-3.31,5.717,5.717,0,0,0-2.12-2.26A6.043,6.043,0,0,0,9.38,3.06Z" transform="translate(23.63 8.16)" fill="#00739a"/>
    <path id="Shape-20" data-name="Shape" d="M14.46,26.1a1.672,1.672,0,0,1-.491-1.24V16.5a6.258,6.258,0,0,0-.71-3.16,4.536,4.536,0,0,0-1.92-1.82,6.138,6.138,0,0,0-2.77-.59,5.627,5.627,0,0,0-2.579.58A4.821,4.821,0,0,0,4.15,13.06a3.82,3.82,0,0,0-.679,2.23v9.57A1.7,1.7,0,0,1,2.99,26.1a1.67,1.67,0,0,1-1.26.49A1.675,1.675,0,0,1,0,24.86V1.74A1.676,1.676,0,0,1,.49.48,1.708,1.708,0,0,1,1.73,0,1.7,1.7,0,0,1,2.99.48,1.7,1.7,0,0,1,3.47,1.74v8.332A7.871,7.871,0,0,1,5.21,8.79,8.255,8.255,0,0,1,9.26,7.8a8.686,8.686,0,0,1,4.2,1,7.193,7.193,0,0,1,2.92,2.939,9.767,9.767,0,0,1,1.07,4.76v8.36a1.677,1.677,0,0,1-1.75,1.73A1.67,1.67,0,0,1,14.46,26.1Z" transform="translate(46.17 0.33)" fill="#00739a"/>
    <path id="Path-29" data-name="Path" d="M9.68,18.87a10.151,10.151,0,0,1-5.01-1.21,8.72,8.72,0,0,1-3.43-3.33A9.47,9.47,0,0,1,0,9.45,9.988,9.988,0,0,1,1.17,4.54,8.462,8.462,0,0,1,4.42,1.21,9.331,9.331,0,0,1,9.18,0a8.545,8.545,0,0,1,4.56,1.17A7.652,7.652,0,0,1,16.65,4.4a10.66,10.66,0,0,1,1,4.74,1.432,1.432,0,0,1-.44,1.07,1.556,1.556,0,0,1-1.12.42H2.39V7.91h13.6l-1.39.95a7.225,7.225,0,0,0-.68-3.04,4.969,4.969,0,0,0-4.73-2.9,6.187,6.187,0,0,0-3.32.85A5.485,5.485,0,0,0,3.78,6.1a7.557,7.557,0,0,0-.71,3.35,6.446,6.446,0,0,0,.85,3.33,6.207,6.207,0,0,0,2.35,2.31,6.792,6.792,0,0,0,3.43.85,6.5,6.5,0,0,0,2.16-.39,6.777,6.777,0,0,0,1.79-.9,1.914,1.914,0,0,1,1.1-.39,1.519,1.519,0,0,1,1.04.36,1.574,1.574,0,0,1,.61,1.12,1.206,1.206,0,0,1-.54,1.05,9.585,9.585,0,0,1-2.87,1.5A10.694,10.694,0,0,1,9.68,18.87Z" transform="translate(67.08 8.16)" fill="#00739a"/>
    <path id="Shape-21" data-name="Shape" d="M.44,18.38A1.712,1.712,0,0,1,0,17.1V1.9A1.741,1.741,0,0,1,.44.64,1.709,1.709,0,0,1,1.7.2,1.763,1.763,0,0,1,2.98.62,1.737,1.737,0,0,1,3.4,1.89v.645A7.553,7.553,0,0,1,5.37.95,7.447,7.447,0,0,1,9.11,0a5.6,5.6,0,0,1,3.04.66,1.415,1.415,0,0,1,.77,1.58,1.325,1.325,0,0,1-.391.73,1.281,1.281,0,0,1-.66.32,2.1,2.1,0,0,1-.82-.031A9.621,9.621,0,0,0,7.14,3.19,5.291,5.291,0,0,0,4.4,4.58a3.518,3.518,0,0,0-1,2.58v9.93a1.776,1.776,0,0,1-.42,1.26,1.658,1.658,0,0,1-1.28.46A1.736,1.736,0,0,1,.44,18.38Z" transform="translate(87.78 8.08)" fill="#00739a"/>
    <path id="Shape-22" data-name="Shape" d="M3.99,17.81a7.2,7.2,0,0,1-2.92-2.94A9.764,9.764,0,0,1,0,10.11V1.75A1.712,1.712,0,0,1,.49.51,1.674,1.674,0,0,1,1.73.02,1.676,1.676,0,0,1,3.46,1.75v8.36a6.331,6.331,0,0,0,.71,3.15A4.471,4.471,0,0,0,6.11,15.1a6.169,6.169,0,0,0,2.749.589,5.624,5.624,0,0,0,2.6-.58,4.781,4.781,0,0,0,1.821-1.56,3.849,3.849,0,0,0,.679-2.21h.02V1.74A1.673,1.673,0,0,1,14.47.48a1.869,1.869,0,0,1,2.5,0,1.707,1.707,0,0,1,.48,1.26V16.9a1.708,1.708,0,0,1-.48,1.24,1.647,1.647,0,0,1-1.26.5,1.676,1.676,0,0,1-1.731-1.73v-.378a7.683,7.683,0,0,1-1.74,1.308,8.336,8.336,0,0,1-4.05.97A8.7,8.7,0,0,1,3.99,17.81Z" transform="translate(102.57 8.25)" fill="#00739a"/>
    <path id="Path-30" data-name="Path" d="M7.98,18.87a12.776,12.776,0,0,1-4.4-.73A8.475,8.475,0,0,1,.44,16.29a1.506,1.506,0,0,1-.43-1.24,1.65,1.65,0,0,1,.66-1.14,1.763,1.763,0,0,1,1.34-.46,1.864,1.864,0,0,1,1.14.59A5.42,5.42,0,0,0,5,15.25a6.89,6.89,0,0,0,2.84.56,5.655,5.655,0,0,0,3.01-.65,2,2,0,0,0,1.07-1.67,2.086,2.086,0,0,0-.97-1.77A9.158,9.158,0,0,0,7.3,10.5,10.659,10.659,0,0,1,2.32,8.46,4.285,4.285,0,0,1,.77,5.13,4.132,4.132,0,0,1,1.79,2.26,6.124,6.124,0,0,1,4.41.56,10.122,10.122,0,0,1,7.74,0a10.5,10.5,0,0,1,3.98.71,6.763,6.763,0,0,1,2.75,1.97,1.559,1.559,0,0,1,.44,1.14,1.305,1.305,0,0,1-.58,1,1.659,1.659,0,0,1-1.29.24,2.411,2.411,0,0,1-1.26-.61A4.644,4.644,0,0,0,9.94,3.33a7.858,7.858,0,0,0-2.28-.31,5.676,5.676,0,0,0-2.53.51,1.619,1.619,0,0,0-1.04,1.5,2.028,2.028,0,0,0,.32,1.11,2.681,2.681,0,0,0,1.27.88,15.434,15.434,0,0,0,2.79.76A15.275,15.275,0,0,1,12.5,9.07a5.327,5.327,0,0,1,2.12,1.82,4.446,4.446,0,0,1,.65,2.4,5.041,5.041,0,0,1-.83,2.82,5.749,5.749,0,0,1-2.45,2.01A9.41,9.41,0,0,1,7.98,18.87Z" transform="translate(123.56 8.16)" fill="#00739a"/>
    <path id="Path-31" data-name="Path" d="M9.886,27.2a12.761,12.761,0,0,1-4.15-.68,10.769,10.769,0,0,1-3.43-1.9A7.569,7.569,0,0,1,.166,21.8a1.339,1.339,0,0,1,.02-1.33,1.679,1.679,0,0,1,1.21-.78,1.682,1.682,0,0,1,1.21.19,2.07,2.07,0,0,1,.9.97,4.313,4.313,0,0,0,1.34,1.56,7.751,7.751,0,0,0,2.26,1.16,8.859,8.859,0,0,0,2.79.44,8.606,8.606,0,0,0,3.01-.51,5.364,5.364,0,0,0,2.23-1.48,3.507,3.507,0,0,0,.85-2.4,4.482,4.482,0,0,0-1.41-3.23,7.531,7.531,0,0,0-4.64-1.77,11.647,11.647,0,0,1-6.63-2.48A6.487,6.487,0,0,1,.9,7.01,5.908,5.908,0,0,1,2.156,3.2,7.815,7.815,0,0,1,5.576.82,13.6,13.6,0,0,1,10.386,0a10.221,10.221,0,0,1,3.62.58,8.663,8.663,0,0,1,2.7,1.6,10.52,10.52,0,0,1,2.01,2.41A2.09,2.09,0,0,1,19.106,6a1.429,1.429,0,0,1-.66,1.04,1.587,1.587,0,0,1-1.39.17,1.912,1.912,0,0,1-1.12-.88,6.127,6.127,0,0,0-1.33-1.67,5.859,5.859,0,0,0-1.84-1.07,7.134,7.134,0,0,0-2.48-.39,8.188,8.188,0,0,0-4.22.94,3.2,3.2,0,0,0-1.7,2.97A3.981,3.981,0,0,0,4.9,9.07a4.3,4.3,0,0,0,1.94,1.62,12.678,12.678,0,0,0,4.06.95,10.7,10.7,0,0,1,6.31,2.46,6.969,6.969,0,0,1,2.26,5.42,6.855,6.855,0,0,1-.8,3.37,7.447,7.447,0,0,1-2.14,2.4,9.6,9.6,0,0,1-3.06,1.45A14.345,14.345,0,0,1,9.886,27.2Z" transform="translate(2.764 32.03)" fill="#00739a"/>
    <path id="Shape-23" data-name="Shape" d="M9.38,18.87A9.575,9.575,0,0,1,4.52,17.66a8.658,8.658,0,0,1-3.31-3.33A9.814,9.814,0,0,1,0,9.45,9.732,9.732,0,0,1,1.21,4.54,8.715,8.715,0,0,1,4.52,1.21,9.727,9.727,0,0,1,9.38,0a9.567,9.567,0,0,1,4.83,1.21,8.8,8.8,0,0,1,3.31,3.33,9.831,9.831,0,0,1,1.21,4.91,9.92,9.92,0,0,1-1.19,4.88,8.559,8.559,0,0,1-3.3,3.33A9.666,9.666,0,0,1,9.38,18.87Zm0-15.8a6.043,6.043,0,0,0-3.13.81,5.779,5.779,0,0,0-2.14,2.26A6.88,6.88,0,0,0,3.33,9.45a6.8,6.8,0,0,0,.779,3.3,5.8,5.8,0,0,0,2.14,2.24,6.043,6.043,0,0,0,3.13.82,5.959,5.959,0,0,0,3.13-.82,5.676,5.676,0,0,0,2.12-2.24,6.9,6.9,0,0,0,.76-3.3,6.981,6.981,0,0,0-.76-3.31,5.708,5.708,0,0,0-2.12-2.26A6.043,6.043,0,0,0,9.38,3.07Z" transform="translate(26.32 40.16)" fill="#00739a"/>
    <path id="Path-32" data-name="Path" d="M5.1,26.55a4.433,4.433,0,0,1-2.65-.82A5.4,5.4,0,0,1,.65,23.5,7.726,7.726,0,0,1,0,20.25V1.7A1.627,1.627,0,0,1,.48.48,1.658,1.658,0,0,1,1.7,0,1.642,1.642,0,0,1,3.4,1.7V20.26a4.014,4.014,0,0,0,.48,2.07,1.421,1.421,0,0,0,1.22.82h.85a1.4,1.4,0,0,1,1.1.48,1.773,1.773,0,0,1,.42,1.22,1.446,1.446,0,0,1-.65,1.22,2.732,2.732,0,0,1-1.67.48Z" transform="translate(49.54 32.34)" fill="#00739a"/>
    <path id="Shape-24" data-name="Shape" d="M3.99,17.81a7.2,7.2,0,0,1-2.92-2.94A9.764,9.764,0,0,1,0,10.11V1.75A1.712,1.712,0,0,1,.49.51,1.674,1.674,0,0,1,1.73.02,1.676,1.676,0,0,1,3.46,1.75v8.36a6.331,6.331,0,0,0,.71,3.15A4.471,4.471,0,0,0,6.11,15.1a6.169,6.169,0,0,0,2.749.589,5.624,5.624,0,0,0,2.6-.58,4.781,4.781,0,0,0,1.821-1.56,3.827,3.827,0,0,0,.679-2.21h.01V1.74A1.673,1.673,0,0,1,14.46.48a1.867,1.867,0,0,1,2.5,0,1.7,1.7,0,0,1,.481,1.26V16.9a1.705,1.705,0,0,1-.481,1.24,1.644,1.644,0,0,1-1.26.5,1.676,1.676,0,0,1-1.73-1.73v-.368a7.685,7.685,0,0,1-1.73,1.3,8.364,8.364,0,0,1-4.05.97A8.7,8.7,0,0,1,3.99,17.81Z" transform="translate(60.05 40.25)" fill="#00739a"/>
    <path id="Shape-25" data-name="Shape" d="M9.15,24.51V24.5a5.575,5.575,0,0,1-3.06-.869A6.109,6.109,0,0,1,3.95,21.27a7.152,7.152,0,0,1-.78-3.37V9.51H1.6A1.658,1.658,0,0,1,.44,9.1,1.34,1.34,0,0,1,0,8.08,1.431,1.431,0,0,1,.44,6.99,1.642,1.642,0,0,1,1.6,6.58H3.17V1.69A1.627,1.627,0,0,1,4.87,0,1.661,1.661,0,0,1,6.09.47a1.661,1.661,0,0,1,.48,1.22V6.58H9.45a1.616,1.616,0,0,1,1.16.41,1.417,1.417,0,0,1,.44,1.09,1.34,1.34,0,0,1-.44,1.02,1.643,1.643,0,0,1-1.16.41H6.57v8.4a3.479,3.479,0,0,0,.75,2.28,2.3,2.3,0,0,0,1.84.921h1.16a1.345,1.345,0,0,1,1.04.48,1.779,1.779,0,0,1,.43,1.219,1.523,1.523,0,0,1-.56,1.22,2.139,2.139,0,0,1-1.44.48Z" transform="translate(81.22 34.39)" fill="#00739a"/>
    <path id="Shape-26" data-name="Shape" d="M1,25.61a1.673,1.673,0,0,1-.49-1.24V9.24A1.67,1.67,0,0,1,1,7.98,1.7,1.7,0,0,1,2.24,7.51,1.736,1.736,0,0,1,3.5,7.98a1.7,1.7,0,0,1,.48,1.26V24.37a1.708,1.708,0,0,1-.48,1.24,1.675,1.675,0,0,1-1.26.49A1.675,1.675,0,0,1,1,25.61ZM.66,3.82A2.158,2.158,0,0,1,0,2.24,2.161,2.161,0,0,1,.66.66,2.161,2.161,0,0,1,2.24,0,2.158,2.158,0,0,1,3.82.66,2.162,2.162,0,0,1,4.48,2.24,2.159,2.159,0,0,1,3.82,3.82,2.143,2.143,0,0,1,2.24,4.48,2.162,2.162,0,0,1,.66,3.82Z" transform="translate(97.07 32.79)" fill="#00739a"/>
    <path id="Shape-27" data-name="Shape" d="M9.38,18.87A9.571,9.571,0,0,1,4.52,17.66a8.657,8.657,0,0,1-3.31-3.33A9.72,9.72,0,0,1,0,9.45,9.731,9.731,0,0,1,1.21,4.54,8.711,8.711,0,0,1,4.52,1.21,9.67,9.67,0,0,1,9.38,0,9.561,9.561,0,0,1,14.21,1.21a8.71,8.71,0,0,1,3.31,3.33,9.823,9.823,0,0,1,1.21,4.91,9.909,9.909,0,0,1-1.19,4.88,8.562,8.562,0,0,1-3.3,3.33A9.666,9.666,0,0,1,9.38,18.87Zm0-15.8a6.043,6.043,0,0,0-3.13.81A5.78,5.78,0,0,0,4.11,6.14a6.872,6.872,0,0,0-.78,3.31,6.8,6.8,0,0,0,.78,3.3,5.85,5.85,0,0,0,2.14,2.24,6.043,6.043,0,0,0,3.13.82,5.958,5.958,0,0,0,3.129-.82,5.6,5.6,0,0,0,2.12-2.24,7.02,7.02,0,0,0,.76-3.3,6.888,6.888,0,0,0-.76-3.31,5.718,5.718,0,0,0-2.12-2.26A6.041,6.041,0,0,0,9.38,3.07Z" transform="translate(106.56 40.16)" fill="#00739a"/>
    <path id="Shape-28" data-name="Shape" d="M14.46,18.29a1.671,1.671,0,0,1-.491-1.24V8.69a6.259,6.259,0,0,0-.71-3.161,4.542,4.542,0,0,0-1.92-1.82,6.17,6.17,0,0,0-2.77-.6,5.626,5.626,0,0,0-2.579.58A4.91,4.91,0,0,0,4.15,5.24,3.82,3.82,0,0,0,3.47,7.47v9.58a1.7,1.7,0,0,1-.481,1.24,1.67,1.67,0,0,1-1.26.49A1.676,1.676,0,0,1,0,17.05V1.89A1.713,1.713,0,0,1,.49.63,1.7,1.7,0,0,1,1.73.16,1.738,1.738,0,0,1,2.99.63,1.7,1.7,0,0,1,3.47,1.89v.376A7.848,7.848,0,0,1,5.21.98,8.259,8.259,0,0,1,9.26,0a8.7,8.7,0,0,1,4.2,1,7.2,7.2,0,0,1,2.92,2.94A9.764,9.764,0,0,1,17.45,8.7v8.36a1.709,1.709,0,0,1-.49,1.239,1.765,1.765,0,0,1-1.26.481A1.67,1.67,0,0,1,14.46,18.29Z" transform="translate(130.46 40.14)" fill="#00739a"/>
    <path id="Path-33" data-name="Path" d="M7.98,18.87a12.776,12.776,0,0,1-4.4-.73A8.475,8.475,0,0,1,.44,16.29a1.506,1.506,0,0,1-.43-1.24,1.65,1.65,0,0,1,.66-1.14,1.763,1.763,0,0,1,1.34-.46,1.864,1.864,0,0,1,1.14.59A5.42,5.42,0,0,0,5,15.25a6.89,6.89,0,0,0,2.84.56,5.655,5.655,0,0,0,3.01-.65,2,2,0,0,0,1.07-1.67,2.086,2.086,0,0,0-.97-1.77A9.158,9.158,0,0,0,7.3,10.5,10.659,10.659,0,0,1,2.32,8.46,4.285,4.285,0,0,1,.77,5.13,4.132,4.132,0,0,1,1.79,2.26,6.124,6.124,0,0,1,4.41.56,10.122,10.122,0,0,1,7.74,0a10.5,10.5,0,0,1,3.98.71,6.672,6.672,0,0,1,2.75,1.97,1.559,1.559,0,0,1,.44,1.14,1.305,1.305,0,0,1-.58,1,1.659,1.659,0,0,1-1.29.24,2.411,2.411,0,0,1-1.26-.61A4.644,4.644,0,0,0,9.94,3.33a7.53,7.53,0,0,0-2.28-.31,5.676,5.676,0,0,0-2.53.51,1.619,1.619,0,0,0-1.04,1.5,2.028,2.028,0,0,0,.32,1.11,2.681,2.681,0,0,0,1.27.88,15.434,15.434,0,0,0,2.79.76A15.275,15.275,0,0,1,12.5,9.07a5.327,5.327,0,0,1,2.12,1.82,4.446,4.446,0,0,1,.65,2.4,5.041,5.041,0,0,1-.83,2.82,5.749,5.749,0,0,1-2.45,2.01A9.41,9.41,0,0,1,7.98,18.87Z" transform="translate(152.43 40.16)" fill="#00739a"/>
    <path id="Shape-29" data-name="Shape" d="M11.89,5.885a.546.546,0,0,1-.18-.42V2.484L10.12,5.375a.581.581,0,0,1-.56.311A.644.644,0,0,1,9,5.345L7.45,2.528V5.465a.557.557,0,0,1-.18.41.569.569,0,0,1-.43.18.645.645,0,0,1-.45-.17.546.546,0,0,1-.18-.42V.585a.5.5,0,0,1,.25-.46.889.889,0,0,1,.56-.12.585.585,0,0,1,.45.31L9.619,4.136,11.71.315a.585.585,0,0,1,.45-.31.9.9,0,0,1,.56.12.5.5,0,0,1,.25.46v4.88a.532.532,0,0,1-.19.41.621.621,0,0,1-.44.18A.645.645,0,0,1,11.89,5.885Zm-9.57,0a.543.543,0,0,1-.18-.42V1.125H.59A.566.566,0,0,1,.17.965.543.543,0,0,1,0,.565a.515.515,0,0,1,.17-.4A.6.6,0,0,1,.59.015H2.14V.005H3.4v.01H4.93a.645.645,0,0,1,.43.149.505.505,0,0,1,.18.4.517.517,0,0,1-.18.4.607.607,0,0,1-.43.16H3.4v4.34a.546.546,0,0,1-.18.42.6.6,0,0,1-.45.17A.645.645,0,0,1,2.32,5.885Z" transform="translate(169.32 39.605)" fill="#00739a"/>
  </g>
</svg>
