<svg xmlns="http://www.w3.org/2000/svg" xmlns:xlink="http://www.w3.org/1999/xlink" width="491" height="337" viewBox="0 0 491 337">
  <defs>
    <linearGradient id="linear-gradient" x1="0.31" y1="0.351" x2="1.537" y2="1.626" gradientUnits="objectBoundingBox">
      <stop offset="0" stop-color="#315470"/>
      <stop offset="1" stop-color="#307fe2"/>
    </linearGradient>
    <filter id="Rectangle_Copy_3" x="0" y="0" width="491" height="337" filterUnits="userSpaceOnUse">
      <feOffset dy="8" input="SourceAlpha"/>
      <feGaussianBlur stdDeviation="12" result="blur"/>
      <feFlood flood-opacity="0.396"/>
      <feComposite operator="in" in2="blur"/>
      <feComposite in="SourceGraphic"/>
    </filter>
  </defs>
  <g id="Group_1780" data-name="Group 1780" transform="translate(-717 -480)">
    <g id="Group_3" data-name="Group 3" transform="translate(753 508)">
      <g transform="matrix(1, 0, 0, 1, -36, -28)" filter="url(#Rectangle_Copy_3)">
        <path id="Rectangle_Copy_3-2" data-name="Rectangle Copy 3" d="M75,0H419a0,0,0,0,1,0,0V190a75,75,0,0,1-75,75H0a0,0,0,0,1,0,0V75A75,75,0,0,1,75,0Z" transform="translate(36 28)" fill="url(#linear-gradient)"/>
      </g>
      <g id="LOQTORZI_TM_KO_RGB" transform="translate(36 108)">
        <g id="Glyph">
          <path id="Path" d="M0,33.551A7.019,7.019,0,0,1,1.1,30L22.185,1.012c1.152-1.622,2.089-1.255,2.089.822V14.048A7.276,7.276,0,0,1,23.179,17.6L1.388,47.358c-.608.865-1.374.663-1.381-.44Z" transform="translate(33.188 6.155)" fill="#fff"/>
          <path id="Path-2" data-name="Path" d="M24.238,1.548c-.165-1.7-1.123-2.033-2.089-.829L1.066,29.984c-.587.829-.83,2.156-1.066,5a7.225,7.225,0,0,1,1.066-3.028L22.149,2.968c1.152-1.622,2.089-1.255,2.089.822Z" transform="translate(33.216 4.199)" fill="#315470"/>
          <path id="Path-3" data-name="Path" d="M24.274,33.558a7.089,7.089,0,0,0-1.1-3.547l-21.083-29C.937-.61,0-.243,0,1.834V14.048A7.276,7.276,0,0,0,1.095,17.6L22.886,47.358c.608.865,1.374.663,1.381-.44Z" transform="translate(0 6.148)" fill="#2cccd3"/>
          <path id="Path-4" data-name="Path" d="M2.089,2.958,23.172,31.949a7.193,7.193,0,0,1,1.066,3.021c-.236-2.834-.486-4.16-1.066-4.989L2.089.7C1.166-.453.172-.186,0,1.53v2.25C.007,1.71.944,1.335,2.089,2.958" transform="translate(0 4.202)" fill="#307fe2"/>
          <path id="Path-5" data-name="Path" d="M34.328,2.062C35.194.93,34.815,0,33.484,0H1.026C0,0-.311.728.347,1.622L17.438,25.632c0,.014,16.891-23.57,16.891-23.57" transform="translate(11.279 1.211)" fill="#f0b323"/>
          <path id="Path-6" data-name="Path" d="M1.021,1.218H33.479c.823,0,1.281.361,1.3.9C34.888.3,34.495,0,33.229,0H1.272C.349,0-.081.469.012,1.853c.064-.389.408-.634,1.009-.634" transform="translate(11.284)" fill="#ff9800"/>
        </g>
        <g id="Group" transform="translate(71.606)">
          <path id="Path-7" data-name="Path" d="M0,0H6.731V22.941H17.419l-.292,5.449H0Z" transform="translate(0 0.422)" fill="#fff"/>
          <path id="Shape" d="M14.054,29.242a16.493,16.493,0,0,1-6.35-1.15,11.576,11.576,0,0,1-4.37-3.135C1.153,22.429,0,18.854,0,14.621A15.307,15.307,0,0,1,3.65,4.3,13.54,13.54,0,0,1,14.054,0a16.3,16.3,0,0,1,6.314,1.155A11.684,11.684,0,0,1,24.741,4.3a15.5,15.5,0,0,1,3.367,10.323,15.273,15.273,0,0,1-3.682,10.337A13.544,13.544,0,0,1,14.054,29.242ZM14.011,5.793A6.518,6.518,0,0,0,8.625,8.386a10.318,10.318,0,0,0-1.851,6.235,10.045,10.045,0,0,0,1.993,6.251,6.6,6.6,0,0,0,5.244,2.578,6.526,6.526,0,0,0,5.418-2.578,10.255,10.255,0,0,0,1.819-6.251A10.129,10.129,0,0,0,19.3,8.384,6.513,6.513,0,0,0,14.011,5.793Z" transform="translate(26.802)" fill="#fff"/>
          <path id="Shape-2" data-name="Shape" d="M27.6,31.9H21.034L18.724,28.6a18.012,18.012,0,0,1-4.67.63,16.492,16.492,0,0,1-6.35-1.15,11.574,11.574,0,0,1-4.369-3.135C1.153,22.422,0,18.847,0,14.614A15.319,15.319,0,0,1,3.655,4.3,13.534,13.534,0,0,1,14.054,0a16.306,16.306,0,0,1,6.314,1.155A11.683,11.683,0,0,1,24.741,4.3a15.5,15.5,0,0,1,3.366,10.323,16.486,16.486,0,0,1-1.252,6.437,13.5,13.5,0,0,1-3.589,5.013L27.6,31.9ZM14.018,5.793A6.518,6.518,0,0,0,8.632,8.386a10.318,10.318,0,0,0-1.851,6.235,10.045,10.045,0,0,0,1.993,6.251,6.6,6.6,0,0,0,5.244,2.578,8.622,8.622,0,0,0,.923-.064l.211-.022-2.859-4.139L15.865,16.1l3.579,4.819a10.493,10.493,0,0,0,1.811-6.295A10.129,10.129,0,0,0,19.31,8.384,6.513,6.513,0,0,0,14.018,5.793Z" transform="translate(65.163)" fill="#fff"/>
          <path id="Path-8" data-name="Path" d="M21.747,0V5.449H14.3V28.39H7.658V5.449H0V0Z" transform="translate(103.245 0.422)" fill="#fff"/>
          <path id="Shape-3" data-name="Shape" d="M14.054,29.242a16.492,16.492,0,0,1-6.35-1.15,11.575,11.575,0,0,1-4.369-3.135C1.153,22.429,0,18.854,0,14.621A15.309,15.309,0,0,1,3.65,4.3,13.539,13.539,0,0,1,14.054,0a16.306,16.306,0,0,1,6.314,1.155A11.683,11.683,0,0,1,24.741,4.3a15.5,15.5,0,0,1,3.366,10.324,15.271,15.271,0,0,1-3.682,10.336A13.544,13.544,0,0,1,14.054,29.242Zm-.042-23.45A6.519,6.519,0,0,0,8.625,8.386a10.318,10.318,0,0,0-1.851,6.235,10.042,10.042,0,0,0,1.993,6.25,6.6,6.6,0,0,0,5.245,2.578,6.526,6.526,0,0,0,5.418-2.578,10.252,10.252,0,0,0,1.819-6.25A10.13,10.13,0,0,0,19.3,8.384,6.513,6.513,0,0,0,14.011,5.792Z" transform="translate(135.167)" fill="#fff"/>
          <path id="Shape-4" data-name="Shape" d="M6.688,28.392H0V0H10.809c3.4,0,6.036.794,7.826,2.36A8.387,8.387,0,0,1,21.284,9,7.975,7.975,0,0,1,15.9,16.139l6.6,12.25H14.973L10.054,18.251H6.688V28.391ZM6.731,5.449V13.01H9.426a5.3,5.3,0,0,0,3.87-1.347,3.835,3.835,0,0,0,1.094-2.706c0-2.263-1.644-3.509-4.628-3.509Z" transform="translate(176.737 0.422)" fill="#fff"/>
          <path id="Path-9" data-name="Path" d="M20.906,22.648V28.39H.207L0,22.941,12.87,5.578H.378V0H20.571l.171,5.406L8.121,22.641H20.906Z" transform="translate(209.97 0.415)" fill="#fff"/>
          <path id="Path-10" data-name="Path" d="M0,0H6.731V28.39H0Z" transform="translate(244.331 0.422)" fill="#fff"/>
        </g>
        <g id="Group-2" data-name="Group" transform="translate(328.856 22.152)">
          <path id="Path-11" data-name="Path" d="M2.236,5.98v-4.8h-2A.208.208,0,0,1,0,.953V.216C0,.074.085,0,.235,0H5.52a.2.2,0,0,1,.228.216V.953a.206.206,0,0,1-.228.223h-2v4.8a.208.208,0,0,1-.235.223H2.457A.2.2,0,0,1,2.236,5.98Z" fill="#fff"/>
          <path id="Path-12" data-name="Path" d="M0,5.98V.216C0,.074.085,0,.235,0h1A.321.321,0,0,1,1.51.149L3.832,3.743,6.146.149A.321.321,0,0,1,6.424,0h.99a.207.207,0,0,1,.235.216V5.98a.208.208,0,0,1-.235.223H6.6a.2.2,0,0,1-.228-.223V1.959L4.366,5.013a.321.321,0,0,1-.278.149h-.52a.321.321,0,0,1-.278-.149L1.282,1.966V5.98a.208.208,0,0,1-.235.223H.235A.205.205,0,0,1,0,5.98Z" transform="translate(6.495)" fill="#fff"/>
        </g>
        <g id="Group-3" data-name="Group" transform="translate(71.606 36.329)">
          <path id="Path-13" data-name="Path" d="M.557,26.07A6.6,6.6,0,0,1,0,23.114V5.5A6.5,6.5,0,0,1,.557,2.543,9.809,9.809,0,0,1,2.484,0L3.505,1.113A7.685,7.685,0,0,0,1.928,3.179a6.241,6.241,0,0,0-.435,2.514V22.927a6.518,6.518,0,0,0,.435,2.514,7.685,7.685,0,0,0,1.578,2.066L2.484,28.62A10.253,10.253,0,0,1,.557,26.07Z" transform="translate(0 0.007)" fill="#fff"/>
          <path id="Path-14" data-name="Path" d="M1.928,16.214V6.106H0V4.9H1.928V0H3.42V4.9H6.6V6.106H3.42V16.25c0,1.619.671,2.543,2.163,2.543H6.6v1.431H5.319C3.1,20.217,1.928,18.533,1.928,16.214Z" transform="translate(6.433 6.134)" fill="#fff"/>
          <path id="Shape-5" data-name="Shape" d="M5.669,15.708a5.1,5.1,0,0,1-3.913-1.683C.2,12.335,0,9.839,0,7.854a14.2,14.2,0,0,1,.319-3.3A6.256,6.256,0,0,1,1.756,1.683,5.1,5.1,0,0,1,5.669,0,5.039,5.039,0,0,1,9.581,1.683c1.556,1.69,1.756,4.185,1.756,6.17s-.2,4.482-1.756,6.171A5.039,5.039,0,0,1,5.669,15.708Zm0-14.27a3.84,3.84,0,0,0-2.92,1.3C1.589,4,1.492,6.039,1.492,7.854s.1,3.864,1.256,5.116a3.867,3.867,0,0,0,2.92,1.3,3.837,3.837,0,0,0,2.92-1.3c1.159-1.259,1.256-3.3,1.256-5.116S9.748,4,8.589,2.738A3.84,3.84,0,0,0,5.669,1.438Z" transform="translate(16.306 10.831)" fill="#fff"/>
          <path id="Path-15" data-name="Path" d="M5.262,1.431c-2.427,0-3.77,2.2-3.77,4.639v9.444H0V.188H1.492V2.225A4.715,4.715,0,0,1,5.612,0,4.14,4.14,0,0,1,9,1.46L7.925,2.637A3.12,3.12,0,0,0,5.262,1.431Z" transform="translate(32.198 10.838)" fill="#fff"/>
          <path id="Shape-6" data-name="Shape" d="M.178,22.638V7.313H1.67V22.638ZM0,2V0H1.842V2Z" transform="translate(43.678 3.714)" fill="#fff"/>
          <path id="Shape-7" data-name="Shape" d="M1.492,22.826H0V.188H1.492V2.16A4.534,4.534,0,0,1,5.668,0,4.642,4.642,0,0,1,9.117,1.336c1.2,1.316,1.814,3.509,1.814,6.518s-.61,5.2-1.814,6.51A4.642,4.642,0,0,1,5.668,15.7,4.533,4.533,0,0,1,1.492,13.54v9.284Zm3.976-21.4c-3.524,0-3.976,3.433-3.976,6.423a11.111,11.111,0,0,0,.7,4.4,3.306,3.306,0,0,0,3.281,2.02c3.525,0,3.977-3.433,3.977-6.423a11.11,11.11,0,0,0-.7-4.4A3.307,3.307,0,0,0,5.468,1.424Z" transform="translate(50.718 10.845)" fill="#fff"/>
          <path id="Shape-8" data-name="Shape" d="M5.169,15.723c-2.114,0-3.238-.38-4.148-1.4A4.445,4.445,0,0,1,0,11.329,4.221,4.221,0,0,1,1.3,8.07,5.312,5.312,0,0,1,4.912,6.908H9.467V5.188c0-2.593-1.227-3.749-3.977-3.749A3.947,3.947,0,0,0,1.607,3.374L.528,2.355A4.832,4.832,0,0,1,2.6.5,6.971,6.971,0,0,1,5.5,0c3.624,0,5.462,1.69,5.462,5.022V15.513H9.467V14A5.016,5.016,0,0,1,5.169,15.723ZM5.083,8.215a4.07,4.07,0,0,0-2.695.768,2.9,2.9,0,0,0-.9,2.318c0,2.069,1.136,2.992,3.684,2.992a4.44,4.44,0,0,0,3.506-1.178,4.209,4.209,0,0,0,.786-2.926V8.215Z" transform="translate(65.003 10.824)" fill="#fff"/>
          <path id="Path-16" data-name="Path" d="M0,18.663V0H1.492V18.635c0,1.749.5,2.572,2.163,2.572H4.676v1.431H3.391C1.085,22.638,0,21.084,0,18.663Z" transform="translate(81.16 3.714)" fill="#fff"/>
          <path id="Shape-9" data-name="Shape" d="M.178,22.638V7.313H1.67V22.638ZM0,2V0H1.842V2Z" transform="translate(89.134 3.714)" fill="#fff"/>
          <path id="Path-17" data-name="Path" d="M18.705,6.012c0-2.955-1.342-4.581-3.884-4.581-2.456,0-3.977,1.655-3.977,4.292v9.791H9.353V6c0-2.955-1.342-4.581-3.884-4.581S1.492,3.078,1.492,6v9.509H0V.188H1.492V2A5.061,5.061,0,0,1,5.669,0a4.688,4.688,0,0,1,4.526,2.8A5.287,5.287,0,0,1,14.985,0,5.064,5.064,0,0,1,18.7,1.46a5.98,5.98,0,0,1,1.464,4.263v9.791H18.7v-9.5Z" transform="translate(96.174 10.831)" fill="#fff"/>
          <path id="Shape-10" data-name="Shape" d="M5.169,15.723c-2.114,0-3.238-.38-4.148-1.4A4.445,4.445,0,0,1,0,11.329,4.221,4.221,0,0,1,1.3,8.07,5.312,5.312,0,0,1,4.912,6.908H9.467V5.188c0-2.593-1.227-3.749-3.977-3.749A3.947,3.947,0,0,0,1.607,3.374L.528,2.355A4.832,4.832,0,0,1,2.6.5,6.971,6.971,0,0,1,5.5,0c3.624,0,5.462,1.69,5.462,5.022V15.513H9.467V14A5.016,5.016,0,0,1,5.169,15.723ZM5.09,8.215A4.07,4.07,0,0,0,2.4,8.983,2.9,2.9,0,0,0,1.5,11.3c0,2.069,1.136,2.992,3.684,2.992a4.44,4.44,0,0,0,3.505-1.178,4.209,4.209,0,0,0,.786-2.926V8.215Z" transform="translate(120.333 10.824)" fill="#fff"/>
          <path id="Shape-11" data-name="Shape" d="M5.668,22.833a4.533,4.533,0,0,1-4.176-2.161v1.973H0V0H1.492V9.284a4.533,4.533,0,0,1,4.176-2.16A4.642,4.642,0,0,1,9.117,8.461c1.2,1.316,1.814,3.509,1.814,6.518s-.61,5.208-1.814,6.517A4.642,4.642,0,0,1,5.668,22.833Zm-.2-14.278c-3.524,0-3.976,3.433-3.976,6.423a11.111,11.111,0,0,0,.7,4.4A3.306,3.306,0,0,0,5.468,21.4c3.525,0,3.977-3.433,3.977-6.423a11.11,11.11,0,0,0-.7-4.4A3.307,3.307,0,0,0,5.468,8.555Z" transform="translate(136.547 3.714)" fill="#fff"/>
          <path id="Path-18" data-name="Path" d="M0,0H7.653V1.5H0Z" transform="translate(151.596 17.226)" fill="#fff"/>
          <path id="Path-19" data-name="Path" d="M1.928,16.214V6.106H0V4.9H1.928V0H3.42V4.9H6.6V6.106H3.42V16.25c0,1.619.671,2.543,2.163,2.543H6.6v1.431H5.319C3.091,20.217,1.928,18.533,1.928,16.214Z" transform="translate(162.612 6.134)" fill="#fff"/>
          <path id="Shape-12" data-name="Shape" d="M1.492,22.826H0V.188H1.492V2.16A4.534,4.534,0,0,1,5.668,0,4.642,4.642,0,0,1,9.117,1.336c1.2,1.316,1.814,3.509,1.814,6.518s-.61,5.2-1.814,6.51A4.642,4.642,0,0,1,5.668,15.7,4.533,4.533,0,0,1,1.492,13.54v9.284Zm3.976-21.4c-3.524,0-3.976,3.433-3.976,6.423a11.111,11.111,0,0,0,.7,4.4,3.306,3.306,0,0,0,3.281,2.02c3.525,0,3.977-3.433,3.977-6.423a11.11,11.11,0,0,0-.7-4.4A3.307,3.307,0,0,0,5.468,1.424Z" transform="translate(173.385 10.845)" fill="#fff"/>
          <path id="Path-20" data-name="Path" d="M0,13.8,8.474,1.431h-8V0h9.581V1.525l-8.5,12.37h8.5v1.431H0V13.8Z" transform="translate(187.614 11.026)" fill="#fff"/>
          <path id="Shape-13" data-name="Shape" d="M.178,22.638V7.313H1.67V22.638ZM0,2V0H1.842V2Z" transform="translate(201.607 3.714)" fill="#fff"/>
          <path id="Path-21" data-name="Path" d="M3.006,26.077A9.652,9.652,0,0,1,1.078,28.62L0,27.442a7.685,7.685,0,0,0,1.578-2.066,5.585,5.585,0,0,0,.407-2.449V5.694a5.624,5.624,0,0,0-.407-2.449A7.685,7.685,0,0,0,0,1.178L1.078,0A9.652,9.652,0,0,1,3.006,2.543,6.148,6.148,0,0,1,3.563,5.5V23.114A6.192,6.192,0,0,1,3.006,26.077Z" transform="translate(207.718)" fill="#fff"/>
        </g>
        <g id="Group-4" data-name="Group" transform="translate(285.539 49.62)">
          <path id="Shape-14" data-name="Shape" d="M.05,13.052V3.8h1.7v9.254ZM0,1.972V0H1.8V1.972Z" fill="#fff"/>
          <path id="Path-22" data-name="Path" d="M5.162,9.364V3.725c0-1.439-.755-2.067-1.7-2.067S1.7,2.3,1.7,3.725V9.364H0V.11H1.675v.928A2.9,2.9,0,0,1,3.932,0,2.823,2.823,0,0,1,6.024.84,3.578,3.578,0,0,1,6.88,3.447V9.364Z" transform="translate(3.968 3.688)" fill="#fff"/>
          <path id="Shape-15" data-name="Shape" d="M0,16.835V15.251H.755c.683,0,.92-.365.92-1.074V3.805h1.7V14.287a2.278,2.278,0,0,1-2.329,2.549ZM1.617,1.972V0h1.8V1.972Z" transform="translate(11.287)" fill="#fff"/>
          <path id="Shape-16" data-name="Shape" d="M3.81,9.473C2.072,9.473,0,8.65,0,4.726,0,1.811,1.377,0,3.595,0A3.238,3.238,0,0,1,6.244,1.242a5.162,5.162,0,0,1,.945,3.213v.818h-5.5a2.951,2.951,0,0,0,.572,1.905,1.981,1.981,0,0,0,1.584.688A2.447,2.447,0,0,0,5.9,6.917L6.988,8.034A3.841,3.841,0,0,1,3.81,9.473ZM3.587,1.548A1.777,1.777,0,0,0,1.9,2.717a3.166,3.166,0,0,0-.216,1.256H5.493a3.151,3.151,0,0,0-.23-1.256A1.747,1.747,0,0,0,3.587,1.548Z" transform="translate(16.434 3.688)" fill="#fff"/>
          <path id="Path-23" data-name="Path" d="M3.774,9.473C1.869,9.473,0,8.195,0,4.726S1.869,0,3.774,0A3.328,3.328,0,0,1,6.564,1.3L5.392,2.542a1.911,1.911,0,0,0-1.625-.876,1.873,1.873,0,0,0-1.574.818,3.669,3.669,0,0,0-.5,2.242,3.745,3.745,0,0,0,.5,2.264,1.863,1.863,0,0,0,1.574.818,1.937,1.937,0,0,0,1.625-.876l1.172,1.22A3.347,3.347,0,0,1,3.774,9.473Z" transform="translate(24.946 3.688)" fill="#fff"/>
          <path id="Path-24" data-name="Path" d="M3.293,11.9A2.32,2.32,0,0,1,.971,9.327V4.236H0V2.812H.971V0h1.7V2.812H4.313V4.236H2.674v5c0,.672.3,1.074.935,1.074h.7V11.9Z" transform="translate(32.214 1.154)" fill="#fff"/>
          <path id="Shape-17" data-name="Shape" d="M.05,13.052V3.8h1.7v9.254ZM0,1.972V0H1.8V1.972Z" transform="translate(38.145)" fill="#fff"/>
          <path id="Shape-18" data-name="Shape" d="M3.53,9.473a3.28,3.28,0,0,1-2.524-1.1A5.174,5.174,0,0,1,0,4.726,5.266,5.266,0,0,1,1.006,1.1,3.283,3.283,0,0,1,3.53,0,3.261,3.261,0,0,1,6.068,1.1,5.266,5.266,0,0,1,7.074,4.726,5.174,5.174,0,0,1,6.068,8.377,3.286,3.286,0,0,1,3.53,9.473Zm0-7.816a1.6,1.6,0,0,0-1.237.534,3.863,3.863,0,0,0-.582,2.534A3.863,3.863,0,0,0,2.293,7.26a1.687,1.687,0,0,0,2.488,0,3.88,3.88,0,0,0,.582-2.534,3.863,3.863,0,0,0-.582-2.534A1.635,1.635,0,0,0,3.53,1.658Z" transform="translate(41.703 3.688)" fill="#fff"/>
          <path id="Path-25" data-name="Path" d="M5.162,9.364V3.725c0-1.439-.755-2.067-1.7-2.067S1.7,2.3,1.7,3.725V9.364H0V.11H1.675v.928A2.9,2.9,0,0,1,3.932,0,2.823,2.823,0,0,1,6.024.84,3.578,3.578,0,0,1,6.88,3.447V9.364Z" transform="translate(50.582 3.688)" fill="#fff"/>
        </g>
      </g>
    </g>
  </g>
</svg>
