<svg id="Icons-Users" xmlns="http://www.w3.org/2000/svg" xmlns:xlink="http://www.w3.org/1999/xlink" width="99" height="78" viewBox="0 0 99 78">
  <defs>
    <clipPath id="clip-path">
      <path id="Mask" d="M0,78V60.522C0,50.337,2.924,44.451,19.542,38.547l1.151-.409c.032-.009,1.664-.484,4.107-.955a16.232,16.232,0,0,1-6.866-13.292V16.165a15.91,15.91,0,1,1,31.817,0v7.727A16.232,16.232,0,0,1,42.865,37.2c2.448.467,4.094.932,4.127.941l1.151.409A58.012,58.012,0,0,1,58.3,43.094c.2-.045.407-.09.612-.134a15.369,15.369,0,0,0,1.679-.423l.919-.327c.025-.008,1.327-.387,3.275-.764a13,13,0,0,1-5.476-10.633V24.632a12.694,12.694,0,1,1,25.385,0v6.181A13,13,0,0,1,79.2,41.457c1.952.374,3.264.746,3.291.753l.918.327C96.667,47.261,99,51.97,99,60.117V78H0Zm95.047-4.024V60.767c0-2.8-.134-5.3-1.788-7.568-1.732-2.372-5.124-4.437-10.672-6.5A30.086,30.086,0,0,0,72.31,44.985a24.682,24.682,0,0,0-4.385.37l-.585.085c-1.234.18-3.275.637-4.61.949,3.988,3.836,4.955,8.273,4.955,14.133V73.976ZM19.768,42.943C12.812,45.516,8.56,48.1,6.388,51.062c-2.073,2.831-2.241,5.959-2.241,9.461V73.784H63.535V60.522c0-3.5-.168-6.63-2.241-9.461-2.172-2.966-6.422-5.546-13.377-8.119a37.788,37.788,0,0,0-12.881-2.149A65.61,65.61,0,0,0,19.768,42.943Zm43.4-18.255v5.876a8.687,8.687,0,1,0,17.357,0V24.688a8.687,8.687,0,1,0-17.357,0ZM22.082,16.165v7.727a11.761,11.761,0,1,0,23.519,0V16.165a11.761,11.761,0,1,0-23.519,0Z" fill="#00739a"/>
    </clipPath>
  </defs>
  <g id="Colors_007298" data-name="Colors / 007298">
    <path id="Mask-2" data-name="Mask" d="M0,78V60.522C0,50.337,2.924,44.451,19.542,38.547l1.151-.409c.032-.009,1.664-.484,4.107-.955a16.232,16.232,0,0,1-6.866-13.292V16.165a15.91,15.91,0,1,1,31.817,0v7.727A16.232,16.232,0,0,1,42.865,37.2c2.448.467,4.094.932,4.127.941l1.151.409A58.012,58.012,0,0,1,58.3,43.094c.2-.045.407-.09.612-.134a15.369,15.369,0,0,0,1.679-.423l.919-.327c.025-.008,1.327-.387,3.275-.764a13,13,0,0,1-5.476-10.633V24.632a12.694,12.694,0,1,1,25.385,0v6.181A13,13,0,0,1,79.2,41.457c1.952.374,3.264.746,3.291.753l.918.327C96.667,47.261,99,51.97,99,60.117V78H0Zm95.047-4.024V60.767c0-2.8-.134-5.3-1.788-7.568-1.732-2.372-5.124-4.437-10.672-6.5A30.086,30.086,0,0,0,72.31,44.985a24.682,24.682,0,0,0-4.385.37l-.585.085c-1.234.18-3.275.637-4.61.949,3.988,3.836,4.955,8.273,4.955,14.133V73.976ZM19.768,42.943C12.812,45.516,8.56,48.1,6.388,51.062c-2.073,2.831-2.241,5.959-2.241,9.461V73.784H63.535V60.522c0-3.5-.168-6.63-2.241-9.461-2.172-2.966-6.422-5.546-13.377-8.119a37.788,37.788,0,0,0-12.881-2.149A65.61,65.61,0,0,0,19.768,42.943Zm43.4-18.255v5.876a8.687,8.687,0,1,0,17.357,0V24.688a8.687,8.687,0,1,0-17.357,0ZM22.082,16.165v7.727a11.761,11.761,0,1,0,23.519,0V16.165a11.761,11.761,0,1,0-23.519,0Z" fill="#00739a"/>
    <g id="Colors_007298-2" data-name="Colors / 007298" clip-path="url(#clip-path)">
      <g id="Colors_007298-3" data-name="Colors / 007298" transform="translate(-1.269 -11.323)">
        <rect id="Colors_007298-4" data-name="Colors / 007298" width="101.538" height="100.645" fill="#00739a"/>
      </g>
    </g>
  </g>
</svg>
