<svg xmlns="http://www.w3.org/2000/svg" width="35.4" height="45.86" viewBox="0 0 35.4 45.86">
  <g id="patient_icon_white" transform="translate(1 1)">
    <g id="Group" transform="translate(0)">
      <path id="Path" d="M3.2,6.4A3.159,3.159,0,0,0,6.4,3.2,3.159,3.159,0,0,0,3.2,0,3.159,3.159,0,0,0,0,3.2,3.159,3.159,0,0,0,3.2,6.4Z" transform="translate(4.3 0)" fill="none" stroke="#fff" stroke-linecap="round" stroke-linejoin="round" stroke-miterlimit="10" stroke-width="2"/>
      <g id="Group-2" data-name="Group" transform="translate(0 9.9)">
        <path id="Path-2" data-name="Path" d="M9.2,0H3.1A3.227,3.227,0,0,0,0,3.3l.7,9c.1,1.4,1.8,2,3,2.2h.2l.8,11.1" transform="translate(0 0)" fill="none" stroke="#fff" stroke-linecap="round" stroke-linejoin="round" stroke-miterlimit="10" stroke-width="2"/>
      </g>
    </g>
    <g id="Group-3" data-name="Group" transform="translate(23)">
      <path id="Path-3" data-name="Path" d="M3.2,6.4A3.159,3.159,0,0,0,6.4,3.2,3.159,3.159,0,0,0,3.2,0,3.159,3.159,0,0,0,0,3.2,3.159,3.159,0,0,0,3.2,6.4Z" transform="translate(0 0)" fill="none" stroke="#fff" stroke-linecap="round" stroke-linejoin="round" stroke-miterlimit="10" stroke-width="2"/>
      <g id="Group-4" data-name="Group" transform="translate(0.8 9.8)">
        <path id="Path-4" data-name="Path" d="M4.9,25.6l.8-11.1h.2c1.2-.2,2.9-.8,3-2.2l.7-8.8V3.3A3.564,3.564,0,0,0,6.2,0H0" transform="translate(0)" fill="none" stroke="#fff" stroke-linecap="round" stroke-linejoin="round" stroke-miterlimit="10" stroke-width="2"/>
      </g>
    </g>
    <g id="Group-5" data-name="Group" transform="translate(9.4 6.7)">
      <path id="Path-5" data-name="Path" d="M3.2,6.4A3.159,3.159,0,0,0,6.4,3.2,3.159,3.159,0,0,0,3.2,0,3.159,3.159,0,0,0,0,3.2,3.222,3.222,0,0,0,3.2,6.4Z" transform="translate(4 0)" fill="none" stroke="#fff" stroke-linecap="round" stroke-linejoin="round" stroke-miterlimit="10" stroke-width="2"/>
      <path id="Path-6" data-name="Path" d="M9.8,27.3h0l1-12.8H11c1.2-.2,2.9-.8,3-2.2l.7-8.8V3.3A3.564,3.564,0,0,0,11.3,0H3.1A3.227,3.227,0,0,0,0,3.3l.7,9c.1,1.4,1.8,2,3,2.2h.2l.8,12.8" transform="translate(0 9.8)" fill="none" stroke="#fff" stroke-linecap="round" stroke-linejoin="round" stroke-miterlimit="10" stroke-width="2"/>
    </g>
  </g>
</svg>
