<svg id="Icons-Site" xmlns="http://www.w3.org/2000/svg" xmlns:xlink="http://www.w3.org/1999/xlink" width="79.897" height="75.882" viewBox="0 0 79.897 75.882">
  <defs>
    <clipPath id="clip-path">
      <path id="Mask" d="M79.9,75.882H0V71.672H4.327V18.184H18.175V0H62.787V18.184H76.635V71.672H79.9v4.208ZM62.787,59.7V71.672h9.653V22.394H62.787v3.14h7.456V41.511H62.787v1.21h7.456V59.7ZM22.371,4.207V71.672H58.59V4.207ZM8.523,22.394V71.672h9.652V59.766H10.718V42.789h7.457V41.58H10.718V25.6h7.457v-3.21ZM14.914,47v8.557h3.262V47Zm47.873-.07v8.558h3.262V46.93Zm0-17.186V38.3h3.262V29.743Zm-47.873.07v7.557h3.262V29.813ZM54.5,66h-13V50h13V66l0,0Zm-9-12v8h5V54Zm-6,12h-13V50h13V66l0,0Zm-9-12v8h5V54Zm24-8h-13V30h13V46Zm-9-12v8h5V34Zm-6,12h-13V30h13V46Zm-9-12v8h5V34Zm24-8h-13V10h13V26Zm-9-12v8h5V14Zm-6,12h-13V10h13V26Zm-9-12v8h5V14Z" transform="translate(0 0)" fill="#00739a"/>
    </clipPath>
  </defs>
  <g id="Colors_007298" data-name="Colors / 007298" transform="translate(0 0)">
    <path id="Mask-2" data-name="Mask" d="M79.9,75.882H0V71.672H4.327V18.184H18.175V0H62.787V18.184H76.635V71.672H79.9v4.208ZM62.787,59.7V71.672h9.653V22.394H62.787v3.14h7.456V41.511H62.787v1.21h7.456V59.7ZM22.371,4.207V71.672H58.59V4.207ZM8.523,22.394V71.672h9.652V59.766H10.718V42.789h7.457V41.58H10.718V25.6h7.457v-3.21ZM14.914,47v8.557h3.262V47Zm47.873-.07v8.558h3.262V46.93Zm0-17.186V38.3h3.262V29.743Zm-47.873.07v7.557h3.262V29.813ZM54.5,66h-13V50h13V66l0,0Zm-9-12v8h5V54Zm-6,12h-13V50h13V66l0,0Zm-9-12v8h5V54Zm24-8h-13V30h13V46Zm-9-12v8h5V34Zm-6,12h-13V30h13V46Zm-9-12v8h5V34Zm24-8h-13V10h13V26Zm-9-12v8h5V14Zm-6,12h-13V10h13V26Zm-9-12v8h5V14Z" transform="translate(0 0)" fill="#00739a"/>
    <g id="Colors_007298-2" data-name="Colors / 007298" clip-path="url(#clip-path)">
      <g id="Colors_007298-3" data-name="Colors / 007298" transform="translate(0 -4)">
        <rect id="Colors_007298-4" data-name="Colors / 007298" width="80" height="80" fill="#00739a"/>
      </g>
    </g>
  </g>
</svg>
