<svg id="Component_105" data-name="Component 105" xmlns="http://www.w3.org/2000/svg" width="223" height="37" viewBox="0 0 223 37">
  <g id="Graphic_-_Highlight_A" data-name="Graphic - Highlight A" transform="translate(26 16)">
    <g id="Parts_Highlight_A" data-name="Parts/Highlight A">
      <rect id="Nav_Highlight" data-name="Nav Highlight" width="183" height="4" fill="#dad9d9"/>
    </g>
  </g>
  <g id="Component_103_1" data-name="Component 103 – 1">
    <g id="Path_2" data-name="Path 2" fill="#fff">
      <path d="M 18.5 35 C 14.09269046783447 35 9.949179649353027 33.28369903564453 6.83273983001709 30.16725921630859 C 3.716300010681152 27.05081939697266 2 22.90731048583984 2 18.5 C 2 14.09269046783447 3.716300010681152 9.949179649353027 6.83273983001709 6.83273983001709 C 9.949179649353027 3.716300010681152 14.09269046783447 2 18.5 2 C 22.90731048583984 2 27.05081939697266 3.716300010681152 30.16725921630859 6.83273983001709 C 33.28369903564453 9.949179649353027 35 14.09269046783447 35 18.5 C 35 22.90731048583984 33.28369903564453 27.05081939697266 30.16725921630859 30.16725921630859 C 27.05081939697266 33.28369903564453 22.90731048583984 35 18.5 35 Z" stroke="none"/>
      <path d="M 18.5 4 C 14.62690925598145 4 10.98563957214355 5.508260726928711 8.246950149536133 8.246950149536133 C 5.508260726928711 10.98563957214355 4 14.62690925598145 4 18.5 C 4 22.37308883666992 5.508260726928711 26.01436042785645 8.246950149536133 28.75304985046387 C 10.98563957214355 31.49174118041992 14.62690925598145 33 18.5 33 C 22.37308883666992 33 26.01436042785645 31.49174118041992 28.75304985046387 28.75304985046387 C 31.49174118041992 26.01436042785645 33 22.37308883666992 33 18.5 C 33 14.62690925598145 31.49174118041992 10.98563957214355 28.75304985046387 8.246950149536133 C 26.01436042785645 5.508260726928711 22.37308883666992 4 18.5 4 M 18.5 0 C 28.71726989746094 0 37 8.282730102539062 37 18.5 C 37 28.71726989746094 28.71726989746094 37 18.5 37 C 8.282730102539062 37 0 28.71726989746094 0 18.5 C 0 8.282730102539062 8.282730102539062 0 18.5 0 Z" stroke="none" fill="#40ae49"/>
    </g>
  </g>
  <g id="Component_2_4" data-name="Component 2 – 4" transform="translate(50 3)">
    <circle id="Ellipse_2" data-name="Ellipse 2" cx="14.5" cy="14.5" r="14.5" fill="#dad9d9"/>
  </g>
  <g id="Component_2_5" data-name="Component 2 – 5" transform="translate(98 3)">
    <circle id="Ellipse_2-2" data-name="Ellipse 2" cx="14.5" cy="14.5" r="14.5" fill="#dad9d9"/>
  </g>
  <g id="Component_2_6" data-name="Component 2 – 6" transform="translate(194 3)">
    <circle id="Ellipse_2-3" data-name="Ellipse 2" cx="14.5" cy="14.5" r="14.5" fill="#dad9d9"/>
  </g>
  <g id="Component_2_7" data-name="Component 2 – 7" transform="translate(146 3)">
    <circle id="Ellipse_2-4" data-name="Ellipse 2" cx="14.5" cy="14.5" r="14.5" fill="#dad9d9"/>
  </g>
</svg>
