<svg xmlns="http://www.w3.org/2000/svg" xmlns:xlink="http://www.w3.org/1999/xlink" width="490" height="337" viewBox="0 0 490 337">
  <defs>
    <linearGradient id="linear-gradient" x1="-0.046" y1="-0.05" x2="1.464" y2="1.407" gradientUnits="objectBoundingBox">
      <stop offset="0" stop-color="#004a92"/>
      <stop offset="1" stop-color="#3fae2a"/>
    </linearGradient>
    <filter id="Rectangle_Copy_3" x="0" y="0" width="490" height="337" filterUnits="userSpaceOnUse">
      <feOffset dy="8" input="SourceAlpha"/>
      <feGaussianBlur stdDeviation="12" result="blur"/>
      <feFlood flood-opacity="0.396"/>
      <feComposite operator="in" in2="blur"/>
      <feComposite in="SourceGraphic"/>
    </filter>
  </defs>
  <g id="Group_1779" data-name="Group 1779" transform="translate(-234 -480)">
    <g id="Group_2" data-name="Group 2" transform="translate(270 508)">
      <g transform="matrix(1, 0, 0, 1, -36, -28)" filter="url(#Rectangle_Copy_3)">
        <path id="Rectangle_Copy_3-2" data-name="Rectangle Copy 3" d="M75,0H418a0,0,0,0,1,0,0V190a75,75,0,0,1-75,75H0a0,0,0,0,1,0,0V75A75,75,0,0,1,75,0Z" transform="translate(36 28)" fill="url(#linear-gradient)"/>
      </g>
      <g id="Udenyca_logo_4C_REV" transform="translate(34 95)">
        <g id="Group" transform="translate(0)">
          <g id="Group-2" data-name="Group">
            <path id="Path" d="M28.978,31.965c-8.75,2.017-18.506-2.715-23.229-11.948A22.537,22.537,0,0,1,5.207,0,20.307,20.307,0,0,0,28.978,31.965" transform="translate(11.839 21.087)" fill="#fff"/>
            <path id="Path-2" data-name="Path" d="M8.606,36.88C2.489,30.207,1.87,19.346,7.6,10.734A22.47,22.47,0,0,1,24.712.492,20.285,20.285,0,0,0,8.606,36.88" transform="translate(0 12.526)" fill="#e0e326"/>
            <path id="Path-3" data-name="Path" d="M23.019,37.706c-8.982-.7-16.88-8.224-18.506-18.465A22.517,22.517,0,0,1,10.088,0,20.435,20.435,0,0,0,.409,21.646a20.186,20.186,0,0,0,22.61,16.06" transform="translate(6.029 18.605)" fill="#fff"/>
            <path id="Path-4" data-name="Path" d="M0,2.5C8.672-.057,18.661,4.21,23.926,13.132a22.377,22.377,0,0,1,1.626,19.939A20.309,20.309,0,0,0,0,2.5" transform="translate(4.115 1.826)" fill="#fff"/>
            <path id="Path-5" data-name="Path" d="M14.092,0c6.427,6.284,7.666,17.146,2.478,26.068A22.366,22.366,0,0,1,0,37.241,20.206,20.206,0,0,0,21.216,26.767,20.2,20.2,0,0,0,14.092,0" transform="translate(22.389 6.114)" fill="#e0e326"/>
            <path id="Path-6" data-name="Path" d="M0,.372C8.982.605,17.267,7.665,19.512,17.751a22.366,22.366,0,0,1-4.491,19.474,20.46,20.46,0,0,0,8.44-22.189A20.291,20.291,0,0,0,0,.372" transform="translate(15.73 0)" fill="#fff"/>
          </g>
          <g id="Group-3" data-name="Group" transform="translate(86.887 20.389)">
            <g id="Group-4" data-name="Group" transform="translate(1.471 37.861)">
              <path id="Shape" d="M75.417,20.87c0-1.177.76-2.015,2.322-2.56a2.1,2.1,0,0,1-1.47-1.94,2.967,2.967,0,0,1,1.936-2.4,4.316,4.316,0,0,1-1.859-3.491,4.206,4.206,0,0,1,2.022-3.783,8.754,8.754,0,0,1,4.636-1.105A8.362,8.362,0,0,1,88.193,6.9l.073-.058a4.473,4.473,0,0,1,3.488-1.339V7.37h-.077a4.058,4.058,0,0,0-2.632.621c.029.052.06.1.092.158a4.433,4.433,0,0,1-.7,5.593,7.1,7.1,0,0,1-5.043,1.7,8.517,8.517,0,0,1-4.027-.7c-.678.226-1.006.607-1.006,1.164,0,.469.136.737.88.9a29.161,29.161,0,0,0,4.54.262,20.377,20.377,0,0,1,5.933.63,2.671,2.671,0,0,1,2.041,2.784c0,2.831-3,4.267-8.9,4.267C80.075,24.749,75.417,24.245,75.417,20.87Zm2.091,0c0,.74.586,1.3,1.742,1.659a12.947,12.947,0,0,0,3.6.437c3.109-.069,6.815-.53,6.815-2.328,0-1.255-1.04-1.474-4.879-1.629-.851-.039-1.7-.059-2.515-.077s-1.665-.039-2.518-.077C78.405,19.351,77.508,19.884,77.508,20.87Zm2.41-13.024a2.708,2.708,0,0,0-1.635,2.55,2.743,2.743,0,0,0,1.809,2.609,7.45,7.45,0,0,0,2.913.572,6.92,6.92,0,0,0,3.146-.66A2.7,2.7,0,0,0,87.729,10.4a2.709,2.709,0,0,0-1.636-2.608,8.224,8.224,0,0,0-6.175.058ZM34.3,20.87c0-1.177.76-2.015,2.322-2.56-.783-.392-1.547-.868-1.547-1.94a2.967,2.967,0,0,1,1.936-2.4,4.316,4.316,0,0,1-1.859-3.491,4.206,4.206,0,0,1,2.022-3.783,8.754,8.754,0,0,1,4.636-1.105A8.362,8.362,0,0,1,47,6.9l.07-.056a4.477,4.477,0,0,1,3.491-1.341V7.37h-.009a4.041,4.041,0,0,0-2.623.62c.03.052.06.105.093.159a4.434,4.434,0,0,1-.7,5.592,7.1,7.1,0,0,1-5.043,1.7,8.517,8.517,0,0,1-4.027-.7c-.678.226-1.006.607-1.006,1.164,0,.469.136.737.88.9a29.161,29.161,0,0,0,4.54.262,20.376,20.376,0,0,1,5.933.63,2.671,2.671,0,0,1,2.041,2.784c0,2.831-3,4.267-8.9,4.267C38.959,24.749,34.3,24.245,34.3,20.87Zm2.091,0c0,.74.586,1.3,1.742,1.659a12.941,12.941,0,0,0,3.6.437,19.752,19.752,0,0,0,4.743-.554c1.374-.392,2.072-.989,2.072-1.775,0-1.255-1.04-1.474-4.879-1.629-.851-.039-1.7-.059-2.515-.077s-1.666-.039-2.517-.077h0C37.29,19.351,36.392,19.884,36.392,20.87ZM38.851,7.846a2.7,2.7,0,0,0-1.606,2.55,2.743,2.743,0,0,0,1.809,2.609,7.451,7.451,0,0,0,2.914.572,6.919,6.919,0,0,0,3.146-.66A2.7,2.7,0,0,0,46.691,10.4a2.709,2.709,0,0,0-1.636-2.608,7.137,7.137,0,0,0-3.087-.572A7.248,7.248,0,0,0,38.851,7.846ZM2.166,24.672H0V5.9H2.168v2.1A8.87,8.87,0,0,1,8.75,5.508a7.344,7.344,0,0,1,5.8,2.444,7.386,7.386,0,0,1,1.791,4.772,7.665,7.665,0,0,1-1.752,4.917,7.857,7.857,0,0,1-6.223,2.531c-2.826,0-4.195-.885-6.195-2.327v6.826h0Zm0-14.431v5.431a7.948,7.948,0,0,0,6.04,2.715,6.51,6.51,0,0,0,4.055-1.27,5.4,5.4,0,0,0,1.907-4.471,5.136,5.136,0,0,0-1.588-3.753,6.183,6.183,0,0,0-4.375-1.6A8.8,8.8,0,0,0,2.168,10.241Zm118.856,6.827,1.625-1.629a7.539,7.539,0,0,0,6.272,2.948c2.245,0,4.336-.7,4.336-2.328,0-3.956-11.537-.62-11.537-6.284,0-3.182,3.252-4.19,6.117-4.19,4.646,0,6.349,2.017,7.046,3.026l-1.471,1.318a6.752,6.752,0,0,0-5.652-2.482c-2.555,0-3.949.776-3.949,2.25,0,3.568,11.537.31,11.537,6.284,0,3.181-3.1,4.345-6.659,4.345A9.261,9.261,0,0,1,121.024,17.069Zm18.2-.7V7.759h-2.943V5.9h2.943V1.241h2.168V5.9h5.5V7.759h-5.5v8.379c0,1.474.7,2.25,2.865,2.25a14.68,14.68,0,0,0,3.02-.388v1.862a26.052,26.052,0,0,1-3.484.388C139.22,20.25,139.22,17.456,139.22,16.37ZM19.667,18.126A7.31,7.31,0,0,1,17.5,12.8,7.036,7.036,0,0,1,19.7,7.5a7.844,7.844,0,0,1,5.391-1.988,8.613,8.613,0,0,1,6.229,2.261,7.466,7.466,0,0,1,1.978,5.576H19.667a5.571,5.571,0,0,0,1.695,3.55,5.929,5.929,0,0,0,4.19,1.571,6.206,6.206,0,0,0,5.625-2.68l.027-.035,1.626,1.164-.277.3c-1.323,1.425-2.822,3.038-7.233,3.038A8.044,8.044,0,0,1,19.667,18.126ZM21.5,8.5a5.292,5.292,0,0,0-1.83,2.987H30.894a4.685,4.685,0,0,0-1.751-2.9,6.266,6.266,0,0,0-3.9-1.212A5.942,5.942,0,0,0,21.5,8.5Zm82.57,7.487c0-1.892,1.119-3.229,3.419-4.09a32.072,32.072,0,0,1,7.195-1.337c.7-.079,1.36-.153,2.008-.237V9.776a2.243,2.243,0,0,0-1.394-2.017,6.792,6.792,0,0,0-3.02-.621c-3.577,0-4.874,1.455-5.572,2.236l-.081.091L105,8.379c.736-.959,2.266-2.948,7.123-2.948a10.238,10.238,0,0,1,4.559.912,3.811,3.811,0,0,1,2.178,3.588v7.682h-.077a9.875,9.875,0,0,0,.232,2.172h-2.168l-.024-.118a8.364,8.364,0,0,1-.208-1.589,12.236,12.236,0,0,1-6.891,2.094C107.608,20.172,104.066,19.627,104.066,15.982Zm4.927-2.725c-1.987.595-2.913,1.461-2.913,2.725a2.143,2.143,0,0,0,1.336,2.056,5.358,5.358,0,0,0,2.149.427,14.862,14.862,0,0,0,7.046-2.173V12.1A45.614,45.614,0,0,0,108.993,13.257ZM54.821,19.862V7.991H51.259V6.129h3.485V5.121c0-2.25.7-5.121,4.955-5.121a12.749,12.749,0,0,1,3.64.388V2.327A11.71,11.71,0,0,0,60.4,1.862c-2.942,0-3.406,1.4-3.406,3.414v.931h5.729V8.069H56.989V19.862Zm120.249-.078V10.552c0-.853,0-3.259-3.02-3.259-2.4,0-4.181,1.63-5.11,2.406V19.706h-2.168V10.552c0-.853,0-3.259-3.02-3.259A7.726,7.726,0,0,0,156.641,9.7V19.706h-2.168V5.9h2.091v1.94a8.431,8.431,0,0,1,5.5-2.327c3.02,0,3.871,1.473,4.414,2.482,2.168-1.862,3.639-2.482,5.652-2.482,1.239,0,5.11.232,5.11,4.267V19.784Zm-25.939,0V5.9H151.3V19.784Zm-55.13,0V5.9h2.168v2.87c1.238-1.4,3.02-3.336,5.807-3.336a6.19,6.19,0,0,1,1.239.078V7.681a14.037,14.037,0,0,0-1.7-.155c-3.02,0-5.265,3.569-5.342,3.956v8.3Zm-22.687,0V.465h2.168V19.784Zm-5.575,0V5.9h2.168V19.784Zm113.59-6.129V11.715h7.2v1.939ZM148.9,2.948V.465h2.478V2.948Zm-83.392,0V.465h2.478V2.948Z" fill="#fff"/>
              <path id="Path-7" data-name="Path" d="M12.853,4.655A5.63,5.63,0,0,0,7.666,1.784c-2.787,0-5.575,1.552-5.575,5.509,0,2.948,2.478,5.121,5.73,5.121a5.633,5.633,0,0,0,5.42-3.026L15.021,10.4c-1.161,2.017-3.1,3.8-7.278,3.8C2.942,14.2,0,11.095,0,7.06,0,2.483,3.484,0,7.666,0c4.026,0,5.962,1.94,6.969,3.646Z" transform="translate(187.459 5.896)" fill="#fff"/>
              <path id="Shape-2" data-name="Shape" d="M8.518,18.931a8.565,8.565,0,0,1-3.523-.63,12.169,12.169,0,0,1-2.826-1.852l-.542,2.094H0c0-.2.043-.792.084-1.36.037-.5.071-.977.071-1.122V0H2.246V6.983c1.89-1.4,3.236-2.25,5.963-2.25a7.532,7.532,0,0,1,5.981,2.444,7.463,7.463,0,0,1,1.684,4.771,7.142,7.142,0,0,1-1.732,4.626A7.13,7.13,0,0,1,8.518,18.931ZM8.053,6.439A7.522,7.522,0,0,0,2.246,9.077v5.2a8.508,8.508,0,0,0,5.808,2.793,5.946,5.946,0,0,0,4.229-1.542,4.914,4.914,0,0,0,1.5-3.578C13.783,9.285,12.277,6.439,8.053,6.439Z" transform="translate(204.106 1.164)" fill="#fff"/>
              <path id="Shape-3" data-name="Shape" d="M15.641,18.465H13.628V11.948c-1.843,1.308-3.173,2.25-5.962,2.25a7.532,7.532,0,0,1-5.981-2.444A7.465,7.465,0,0,1,0,6.982,7.178,7.178,0,0,1,1.723,2.356,7.025,7.025,0,0,1,7.278,0a8.443,8.443,0,0,1,6.349,2.483l.464-2.1h1.549V18.464ZM7.82,1.862A5.946,5.946,0,0,0,3.591,3.4a4.914,4.914,0,0,0-1.5,3.578c0,2.663,1.505,5.509,5.729,5.509a7.357,7.357,0,0,0,5.808-2.638v-5.2A8.512,8.512,0,0,0,7.82,1.862Z" transform="translate(220.909 5.819)" fill="#fff"/>
              <path id="Path-8" data-name="Path" d="M0,0H2.245L7.82,11.095,13.473,0h2.245L8.9,13.345H6.814Z" transform="translate(237.866 6.284)" fill="#fff"/>
            </g>
            <g id="Group-5" data-name="Group">
              <path id="Path-9" data-name="Path" d="M32.056,17.3c0,9.776-6.194,13.732-16.028,13.732S0,27,0,17.3V0H5.885V16.913c0,4.965,1.781,9.077,10.143,9.077s10.143-4.112,10.143-9.077V0h5.885V17.3Z" transform="translate(0 0.776)" fill="#fff"/>
              <path id="Shape-4" data-name="Shape" d="M14.789,30.335H0V0H14.557a26.308,26.308,0,0,1,6.737.8,15.416,15.416,0,0,1,5.459,2.583c3.314,2.542,4.994,6.441,4.994,11.589A17.36,17.36,0,0,1,30.5,21.727a12.721,12.721,0,0,1-3.488,4.8C24.09,29.017,19.863,30.335,14.789,30.335ZM5.884,5.12V25.214h5.963a29.391,29.391,0,0,0,6.424-.6A11.234,11.234,0,0,0,22.59,22.78a7.2,7.2,0,0,0,2.432-3.163,12.056,12.056,0,0,0,.762-4.567c0-3.753-1.043-6.218-3.281-7.758C20.349,5.81,16.963,5.12,11.847,5.12Z" transform="translate(39.18 0.776)" fill="#fff"/>
              <path id="Path-10" data-name="Path" d="M0,0H27.178V5.043H5.962V12.1h18.2v5.121H5.962v7.991H27.643v5.043H0Z" transform="translate(76.114 0.776)" fill="#fff"/>
              <path id="Path-11" data-name="Path" d="M0,0H6.272L26.481,21.879V0h5.652V30.258h-5.42L5.652,7.6V30.258H0Z" transform="translate(108.48 0.776)" fill="#fff"/>
              <path id="Path-12" data-name="Path" d="M14.712,18.155,0,0H7.2L17.732,12.8,28.107,0h7.278L20.674,18.155v12.1H14.712Z" transform="translate(144.95 0.776)" fill="#fff"/>
              <path id="Path-13" data-name="Path" d="M33.992,20.25c-.619,3.414-3.02,11.56-16.88,11.56C7.511,31.81,0,26.456,0,15.439,0,6.595,5.5,0,17.577,0c13.55,0,15.486,8.767,15.951,10.4H27.643c-.31-1.009-2.633-5.353-9.756-5.353C9.524,5.043,6.04,9.776,6.04,16.06c0,6.983,5.033,10.629,11.537,10.629,6.891,0,9.911-4.112,10.531-6.44Z" transform="translate(182.503)" fill="#fff"/>
              <path id="Shape-5" data-name="Shape" d="M6.272,30.336H0L14.866,0H21.6L36.314,30.334H30.043l-3.174-6.983H9.446L6.272,30.335ZM18.2,4.732h0l-6.35,13.5h12.7L18.2,4.732Z" transform="translate(218.431 0.776)" fill="#fff"/>
            </g>
          </g>
        </g>
        <g id="Group-6" data-name="Group" transform="translate(337.531 20.308)">
          <path id="Shape-6" data-name="Shape" d="M5.7,11.479A5.638,5.638,0,0,1,1.652,9.8,5.736,5.736,0,0,1,0,5.739,5.736,5.736,0,0,1,1.652,1.68,5.638,5.638,0,0,1,5.7,0a5.739,5.739,0,1,1,0,11.479Zm0-10.345a4.481,4.481,0,0,0-3.247,1.35,4.738,4.738,0,0,0-1.31,3.332,4.736,4.736,0,0,0,1.31,3.3A4.463,4.463,0,0,0,5.7,10.5a4.608,4.608,0,0,0,4.633-4.682A4.555,4.555,0,0,0,5.7,1.133Z" fill="#fff"/>
          <path id="Shape-7" data-name="Shape" d="M1.292,6.194H0V0H2.659c1.5,0,2.43.752,2.43,1.964A1.938,1.938,0,0,1,3.722,3.852l1.67,2.339-1.594,0L2.354,4.078H1.292V6.193Zm.076-4.985V3.021H2.659c.724,0,1.139-.33,1.139-.906,0-.6-.383-.906-1.139-.906Z" transform="translate(3.266 2.567)" fill="#fff"/>
        </g>
      </g>
    </g>
  </g>
</svg>
